<?xml version="1.0" encoding="utf-8"?>
<!-- Generator: Adobe Illustrator 25.0.0, SVG Export Plug-In . SVG Version: 6.00 Build 0)  -->
<svg version="1.1" xmlns="http://www.w3.org/2000/svg" xmlns:xlink="http://www.w3.org/1999/xlink" x="0px" y="0px"
	 viewBox="0 0 793 1121" style="enable-background:new 0 0 793 1121;" xml:space="preserve">
<style type="text/css">
	.st0{clip-path:url(#SVGID_2_);}
	.st1{clip-path:url(#SVGID_4_);}
	.st2{clip-path:url(#SVGID_6_);}
	.st3{clip-path:url(#SVGID_8_);}
	.st4{clip-path:url(#SVGID_10_);}
	.st5{fill:#FFFED5;}
	.st6{clip-path:url(#SVGID_12_);}
	.st7{fill:#A4A000;}
	.st8{clip-path:url(#SVGID_14_);}
	.st9{clip-path:url(#SVGID_16_);}
	.st10{clip-path:url(#SVGID_18_);}
	.st11{clip-path:url(#SVGID_20_);}
	.st12{clip-path:url(#SVGID_22_);}
	.st13{clip-path:url(#SVGID_24_);}
	.st14{clip-path:url(#SVGID_26_);}
	.st15{clip-path:url(#SVGID_28_);}
	.st16{clip-path:url(#SVGID_30_);}
</style>
<g id="body_1">
</g>
<g id="图层_2">
	<g>
		<g>
			<defs>
				<polygon id="SVGID_1_" points="5.6,9.7 5.8,9.7 5.8,9.7 5.8,1100.9 5.8,1100.9 5.6,1100.9 				"/>
			</defs>
			<clipPath id="SVGID_2_">
				<use xlink:href="#SVGID_1_"  style="overflow:visible;"/>
			</clipPath>
			<g class="st0">
				<g>
					<defs>
						<polygon id="SVGID_3_" points="-766.4,9.7 5.8,9.7 5.8,9.7 5.8,1100.9 5.8,1100.9 -766.4,1100.9 						"/>
					</defs>
					<clipPath id="SVGID_4_">
						<use xlink:href="#SVGID_3_"  style="overflow:visible;"/>
					</clipPath>
					<g class="st1">
						<g transform="matrix(0.2042751 0 0 0.2041407 -578.76 11.43994)">
							<g transform="matrix(1 0 0 1 0 0)">
								
									<image style="overflow:visible;enable-background:new    ;" width="2835" height="4009" xlink:href="img_01.png"  transform="matrix(1.3333 0 0 1.3333 -918.4662 -8.3781)">
								</image>
							</g>
						</g>
					</g>
				</g>
			</g>
		</g>
		<g>
			<defs>
				<polygon id="SVGID_5_" points="5.6,9.7 777.6,9.7 777.6,9.7 777.6,1100.9 777.6,1100.9 5.6,1100.9 				"/>
			</defs>
			<clipPath id="SVGID_6_">
				<use xlink:href="#SVGID_5_"  style="overflow:visible;"/>
			</clipPath>
			<g class="st2">
				<g transform="matrix(0.2042328 0 0 0.2041407 0.24 11.43994)">
					<g transform="matrix(1 0 0 1 0 0)">
						
							<image style="overflow:visible;enable-background:new    ;" width="2835" height="4009" xlink:href="img_01.png"  transform="matrix(1.3333 0 0 1.3333 26.3431 -8.3781)">
						</image>
					</g>
				</g>
			</g>
		</g>
		<g>
			<defs>
				<polygon id="SVGID_7_" points="777.5,9.7 786.9,9.7 786.9,9.7 786.9,1100.9 786.9,1100.9 777.5,1100.9 				"/>
			</defs>
			<clipPath id="SVGID_8_">
				<use xlink:href="#SVGID_7_"  style="overflow:visible;"/>
			</clipPath>
			<g class="st3">
				<g>
					<defs>
						<polygon id="SVGID_9_" points="777.5,9.7 1549.5,9.7 1549.5,9.7 1549.5,1100.9 1549.5,1100.9 777.5,1100.9 						"/>
					</defs>
					<clipPath id="SVGID_10_">
						<use xlink:href="#SVGID_9_"  style="overflow:visible;"/>
					</clipPath>
					<g class="st4">
						<g transform="matrix(0.2042328 0 0 0.2041407 579.1199 11.43994)">
							<g transform="matrix(1 0 0 1 0 0)">
								
									<image style="overflow:visible;enable-background:new    ;" width="2835" height="4009" xlink:href="img_01.png"  transform="matrix(1.3333 0 0 1.3333 971.1452 -8.3781)">
								</image>
							</g>
						</g>
					</g>
				</g>
			</g>
		</g>
		<path id="_x34_" class="st5" d="M308,877.7h24v68h-24V877.7z"/>
		<g>
			<defs>
				<polygon id="SVGID_11_" points="5.6,-6.8 5.6,1115.8 5.6,1115.8 799.1,1115.8 799.1,1115.8 799.1,-6.8 				"/>
			</defs>
			<clipPath id="SVGID_12_">
				<use xlink:href="#SVGID_11_"  style="overflow:visible;"/>
			</clipPath>
			<g class="st6">
				<path id="_x35_" class="st7" d="M331.3,938.4v4.8h-22.4v-4.8h1.8v2.9h19.1v-2.9H331.3z"/>
			</g>
		</g>
		<path id="_x36_" d="M328,896.4h1.1v36H328V896.4z"/>
		<g>
			<defs>
				<polygon id="SVGID_13_" points="5.6,-6.8 5.6,1115.8 5.6,1115.8 799.1,1115.8 799.1,1115.8 799.1,-6.8 				"/>
			</defs>
			<clipPath id="SVGID_14_">
				<use xlink:href="#SVGID_13_"  style="overflow:visible;"/>
			</clipPath>
			<g class="st8">
				<path id="_x37_" d="M312.4,930.1c1.1-0.8,2.1-1.6,3.2-2.4l0,0l1,1.3c-1.1,0.6-2.2,1.4-3.4,2.2l0,0L312.4,930.1z M327.7,925v-3.5
					l0,0l-0.2-6.7c0.5,0.2,1,0.3,1.4,0.5l0,0v6.2l0,0v3.7c-0.2,1.9-0.8,3.4-2.1,4.3c0.3,0.3,1,1,2.2,2.1l0,0l-1.4,0.7
					c-0.6-0.7-1.3-1.5-1.9-2.1l0,0h-6.2l0,0v1.9l0,0h-1.3l0,0v-3.4l0,0h7.7C327.1,927.8,327.6,926.6,327.7,925z M323.1,927.2v-5.9
					l0,0h-2.4l0,0v5.1l0,0h-1.3c-1.1-0.6-2.6-1.3-3.9-1.9l0,0v2.6l0,0h-1.3l0,0v-3c-0.8-0.3-1.6-0.5-2.2-0.8l0,0l0.3-1.5
					c0.6,0.3,1.3,0.5,1.9,0.8l0,0v-7.2l0,0h1.3l0,0v7.7c1.3,0.6,2.7,1.3,3.9,1.9l0,0v-3.7l0,0h-3l0,0V920l0,0h3l0,0v-4.5l0,0h1.3
					l0,0v4.5l0,0h2.4l0,0v-5.1l0,0h1.3l0,0v5.1l0,0h2.9l0,0v1.3l0,0h-2.9l0,0v5.9l0,0H323.1z"/>
				<path id="_x38_" d="M313,901.6l-0.8-0.6c0.5-1,1.1-1.9,1.8-2.7l0,0l1,0.8C314.3,899.8,313.6,900.8,313,901.6z M328.1,906.7
					c-1-1.3-1.9-2.6-3.2-3.7c-1.8,0.8-4.5,1.1-8.3,1.3l0,0v6.6l0,0h2.6l0,0v-5c2.2,0,4.2,0.2,5.8,0.2c1.6,0.2,2.4,1,2.4,2.4
					c0,0.5,0,1.1-0.2,1.9c-0.3,0.2-0.8,0.2-1.4,0.3c0.2-0.8,0.2-1.4,0.2-2.1c0-0.6-0.3-1.1-1.3-1.1c-1.1-0.2-2.4-0.2-4-0.2l0,0v3.5
					c4,0.2,7,1,9,2.6c-0.3,0.3-0.8,0.6-1.3,1c-1.8-1.5-4.5-2.1-8.3-2.1l0,0h-4.6l0,0v-8c-1,0-1.9,0.2-3,0.2l0,0V903c0.8,0,1.8,0,3,0
					l0,0v-6.1l0,0h1.3l0,0v5.9c3.1,0,5.5-0.3,7.1-0.8c-1.6-1.1-3.4-2.1-5.3-2.9l0,0l0.6-1.3c2.4,1,4.5,2.1,6.2,3.5
					c1.8-0.8,2.6-1.6,2.6-2.4c0-0.3-0.3-0.6-0.8-0.8c-0.8-0.2-1.8-0.3-2.6-0.3c0.2-0.5,0.3-1,0.5-1.3c1.1,0.2,2.2,0.3,3,0.5
					c0.8,0.3,1.3,0.8,1.5,1.4c0,0.8-0.3,1.4-0.8,2.1c-0.5,0.8-1.3,1.3-2.2,1.9c1.1,1,1.9,1.9,2.9,3.2
					C328.7,906.1,328.4,906.4,328.1,906.7z"/>
				<path id="_x39_" class="st7" d="M331.3,885.6v4.8h-1.6v-2.7h-19.1v2.7h-1.8v-4.8H331.3z"/>
				<path id="_x31_0" d="M320.5,873.7v-5.6c-0.8-0.2-1.6-0.3-2.7-0.3l0,0v3c1,0.5,1.8,1,2.6,1.6c-0.3,0.3-0.6,0.8-1,1.1
					c-1.4-1.1-3-2.2-4.8-2.9l0,0l0.5-1.3c0.5,0.2,1,0.5,1.4,0.6l0,0v-8.5l0,0h1.3l0,0v5c1,0,1.9,0,2.7,0.2l0,0v-6.1l0,0h1.3l0,0v6.4
					c0.3,0,0.5,0.2,0.6,0.2c1-1.9,2.1-3.8,3.2-6.1l0,0l1.4,1c-1.1,1.8-2.2,3.7-3.5,5.8c1.4,1,2.7,2.7,3.7,5.1
					c-0.5,0.3-0.8,0.6-1.3,1c-1.1-3-2.4-4.8-4.2-5.3l0,0v5.1l0,0H320.5z M313,876.1v-15.7h1.3v14.2h13.1v-14.4h1.3v15.8H313z"/>
				<path id="_x31_1" d="M327.1,859.3v-8.2l0,0h-4.5l0,0v6.2l0,0h-1.4l0,0v-6.2l0,0h-4l0,0v4.6c1.4,0.8,2.6,1.8,3.8,2.7
					c-0.5,0.3-0.8,0.7-1.3,1c-1.9-1.6-4.2-2.9-6.9-3.9l0,0l0.5-1.4c0.8,0.3,1.6,0.6,2.4,1l0,0v-4l0,0H312l0,0v-1.4l0,0h3.7l0,0V843
					l0,0h1.5l0,0v6.7l0,0h4l0,0v-6.2l0,0h1.4l0,0v6.2l0,0h4.5l0,0V842l0,0h1.3l0,0v17.3l0,0H327.1z"/>
				<path id="_x31_2" d="M325,837.2c0-0.3,0.2-0.6,0.3-0.8c0.3-0.2,0.5-0.3,0.8-0.3c0.3,0,0.6,0.2,0.8,0.3c0.3,0.2,0.3,0.5,0.3,0.8
					s0,0.6-0.3,0.8c-0.2,0.2-0.5,0.3-0.8,0.3c-0.3,0-0.5-0.2-0.8-0.3C325.2,837.8,325,837.5,325,837.2z M317.2,837.2
					c0-0.3,0-0.6,0.3-0.8c0.2-0.2,0.5-0.3,0.8-0.3s0.5,0,0.8,0.3c0.2,0.2,0.3,0.5,0.3,0.8s-0.2,0.6-0.3,0.8
					c-0.3,0.2-0.5,0.3-0.8,0.3s-0.6-0.2-0.8-0.3C317.2,837.8,317.2,837.5,317.2,837.2z"/>
				<path id="_x31_3" d="M375.7,898.4l-0.8-0.8c0.8-1,1.6-1.9,2.4-2.7l0,0l1,1C377.3,896.6,376.5,897.6,375.7,898.4z M375.7,903.5
					l0.3-1.3c1.6,0.6,3,1.1,4.2,1.8c-0.2,0.3-0.3,0.8-0.5,1.3C378.4,904.6,376.9,904,375.7,903.5z M375.8,892l-0.8-1.1
					c1.3-1.1,2.4-2.1,3.5-2.9l0,0l1,1.1C378.2,890,376.9,891,375.8,892z M369.7,897.4l0.8-1.1c1.1,1.1,2.2,2.2,3.5,3.5
					c-0.3,0.3-0.6,0.6-1,1C372.1,899.7,371,898.5,369.7,897.4z M370.8,892.6l-0.8-1c0.8-1.1,1.8-2.2,2.9-3.5l0,0l1.1,1
					C372.9,890.4,371.8,891.5,370.8,892.6z M368.3,894.8v-1.4l0,0h4.2c1.4,0,2.1,0.8,2.1,2.1c0,0.5,0,1,0,1.8
					c-0.3,0-0.8,0.2-1.5,0.3c0.2-0.6,0.2-1.3,0.2-1.8c0-0.6-0.3-1-1.1-1l0,0H368.3z M364,901.6l0.6-1.3c0.8,0.5,1.6,1,2.4,1.4l0,0
					h7.9l0,0v1.4l0,0h-6.1c0.8,0.5,1.3,1,1.9,1.5c-0.3,0.3-0.6,0.6-1,1C368,904,366,902.7,364,901.6z M375.8,901.3V900l0,0h2.9
					c0.6,0,1.1-0.5,1.1-1.3l0,0v-3.9c0-0.8-0.5-1.3-1.1-1.4c-0.5-0.2-1.3-0.3-1.9-0.3c0.2-0.5,0.3-1,0.5-1.4
					c0.8,0.2,1.4,0.3,1.9,0.5c1.3,0.3,1.8,1.1,1.8,2.6l0,0v4.3c0,1.4-0.6,2.2-2.1,2.2l0,0H375.8z M369.2,900.8
					c-1.4-1.4-3.2-2.6-5.1-3.5l0,0l0.3-1.3c0.6,0.2,1.1,0.5,1.6,0.8l0,0v-8l0,0h1.1l0,0l2.6,1.1c-0.2,0.5-0.5,1-0.6,1.3l0,0
					l-1.9-0.8l0,0v7c1.1,0.6,2.1,1.4,2.9,2.2C369.9,900,369.6,900.3,369.2,900.8z"/>
				<path id="_x31_4" d="M372,876.4v4.7h3.7v-4.7H372z M370.7,882.4v-7.2h6.2v5.9h1.1v1.3H370.7z M381.3,884.9v1.3l0,0h-14.4l0,0
					v-5.1c-0.8-0.3-1.8-0.6-2.7-1l0,0l0.5-1.4c0.8,0.3,1.6,0.6,2.2,1l0,0v-8.3l0,0h12.3c1.5,0,2.1,0.6,2.1,2.1c0,0.6,0,1.6,0,2.6
					c-0.5,0.2-1,0.2-1.4,0.3c0.2-1,0.2-1.9,0.2-2.6c0-0.6-0.3-1-1.1-1l0,0h-10.7l0,0v12.2l0,0H381.3z"/>
				<path id="_x31_5" d="M369.1,862.2c-0.8,0-1.3,0.3-1.8,0.8c-0.3,0.5-0.7,1.1-0.7,1.9c0,0.5,0.2,1.1,0.5,1.6
					c0.3,0.6,0.6,1.1,1.3,1.6l0,0h-1.8c-0.5-0.5-0.8-1-1-1.5c-0.3-0.6-0.5-1.3-0.5-2.1c0-1.1,0.3-2.2,1-2.9c0.8-0.8,1.6-1.1,2.7-1.1
					c1,0,1.9,0.2,2.6,0.6c0.8,0.5,1.6,1.3,2.2,2.4c0.8,1.1,1.4,1.9,1.8,2.2s0.6,0.6,1,0.8c0.3,0.2,0.6,0.3,1.1,0.3l0,0v-6.9l0,0h1.6
					l0,0v8.7l0,0h-0.6c-0.8,0-1.6-0.2-2.1-0.3c-0.5-0.3-1.1-0.6-1.6-1.1c-0.5-0.5-1.1-1.3-1.9-2.2c-0.6-1.1-1.3-1.9-1.9-2.2
					C370.5,862.5,369.9,862.2,369.1,862.2z"/>
				<path id="_x31_6" d="M372.4,856.6c3.7,0,5.4-0.8,5.4-2.7c0-1.8-1.8-2.7-5.4-2.7c-3.8,0-5.8,1-5.8,2.7
					C366.7,855.6,368.6,856.6,372.4,856.6z M372.6,858.3c-2.4,0-4.2-0.3-5.4-1.1c-1.3-0.8-1.9-1.9-1.9-3.5c0-2.9,2.4-4.3,7-4.3
					c2.2,0,4,0.5,5.3,1.3c1.1,0.8,1.8,1.9,1.8,3.4s-0.5,2.4-1.8,3.2C376.5,858,374.9,858.3,372.6,858.3z"/>
				<path id="_x31_7" d="M369.1,841.2c-0.8,0-1.3,0.2-1.8,0.6c-0.3,0.5-0.7,1.1-0.7,1.9c0,0.5,0.2,1.1,0.5,1.6
					c0.3,0.6,0.6,1.1,1.3,1.6l0,0h-1.8c-0.5-0.3-0.8-1-1-1.4c-0.3-0.6-0.5-1.3-0.5-2.1c0-1.1,0.3-2.1,1-2.9c0.8-0.8,1.6-1.1,2.7-1.1
					c1,0,1.9,0.2,2.6,0.6c0.8,0.5,1.6,1.3,2.2,2.4c0.8,1.1,1.4,1.9,1.8,2.2c0.3,0.5,0.6,0.6,1,0.8c0.3,0.2,0.6,0.3,1.1,0.3l0,0v-6.9
					l0,0h1.6l0,0v8.6l0,0h-0.6c-0.8,0-1.6-0.2-2.1-0.3c-0.5-0.2-1.1-0.6-1.6-1.1c-0.5-0.5-1.1-1.3-1.9-2.2c-0.6-1.1-1.3-1.8-1.9-2.2
					C370.5,841.4,369.9,841.2,369.1,841.2z"/>
				<path id="_x31_8" d="M376.9,836.9c0.6-1,1-2.1,1-3.2c0-1-0.2-1.8-0.6-2.2c-0.5-0.5-1.1-0.8-1.9-0.8c-1.6,0-2.6,1.3-2.6,3.7l0,0
					v1.1l0,0h-1.4l0,0v-1.1c0-2.1-0.8-3.2-2.4-3.2c-1.4,0-2.2,0.8-2.2,2.4c0,1,0.3,1.9,1,2.7l0,0H366c-0.5-0.8-0.8-1.9-0.8-3
					s0.3-2.1,1-2.9c0.6-0.6,1.4-1,2.4-1c1.8,0,2.9,0.8,3.4,2.7l0,0l0,0c0.2-1,0.5-1.8,1.1-2.4c0.7-0.5,1.3-0.8,2.2-0.8
					c1.1,0,2.1,0.5,2.9,1.3c0.8,1,1.1,2.1,1.1,3.5c0,1.3-0.2,2.4-0.6,3.2l0,0H376.9z"/>
				<path id="_x31_9" d="M375.5,822.9v-4.8h-3.7v4.8H375.5z M375.5,827.1v-2.7l0,0h-5l0,0v-6.2l0,0h-3.2l0,0v5.1
					c1.4,0.8,2.7,1.8,4,2.7c-0.3,0.3-0.6,0.6-1,1.1c-1.9-1.8-4-3-6.4-3.8l0,0l0.5-1.5c0.6,0.3,1.1,0.5,1.6,0.8l0,0v-12.2l0,0h1.3
					l0,0v6.2l0,0h3.2l0,0v-5.9l0,0h1.3l0,0v5.9l0,0h3.7l0,0v-7l0,0h1.3l0,0v7l0,0h4.8l0,0v1.4l0,0h-4.8l0,0v9l0,0H375.5z"/>
				<path id="_x32_0" d="M369.7,806.9c0.8,0,1.6-0.3,2.1-0.8c0.5-0.5,0.8-1.1,0.8-1.9c0-0.7-0.2-1.3-0.6-1.8
					c-0.5-0.5-1.1-0.8-1.9-0.8c-1,0-1.8,0.3-2.4,0.8c-0.6,0.5-1,1.1-1,1.9c0,0.6,0.3,1.3,0.8,1.8
					C368.1,806.6,368.8,806.9,369.7,806.9z M377.3,807.9c0.5-0.8,0.6-1.6,0.6-2.4c0-1.3-0.5-2.2-1.4-2.9s-2.2-1-4-1l0,0
					c1.1,0.6,1.6,1.6,1.6,3c0,1.1-0.3,2.1-1.1,2.9c-0.8,0.6-1.8,1.1-3,1.1s-2.4-0.5-3.4-1.3c-0.8-0.8-1.3-1.9-1.3-3.2
					c0-1.5,0.6-2.4,1.6-3.2c1.1-0.8,2.7-1.1,4.7-1.1c2.6,0,4.5,0.5,5.9,1.4c1.3,1,1.9,2.4,1.9,4.2c0,1-0.2,1.8-0.5,2.4l0,0H377.3z"
					/>
				<path id="_x32_1" d="M366.2,794.1h3.4v-8.8h-3.4V794.1z M374.2,794.3v-9l0,0h-3.4l0,0v8.8C372,794.1,373.1,794.3,374.2,794.3z
					 M375.5,794.4c2.2,0.3,4.3,1.1,6.2,2.6c-0.5,0.5-0.8,0.8-1.1,1.3c-1.3-1.1-2.7-1.9-4.5-2.2c-1.1-0.3-2.9-0.5-5.1-0.5l0,0h-6.1
					l0,0v-11.7l0,0h13.8c1.6,0,2.6,0.8,2.6,2.4c0,0.8,0,1.6,0,2.7c-0.5,0-1,0.2-1.6,0.3c0.2-1.1,0.2-1.9,0.2-2.6
					c0-1-0.5-1.4-1.5-1.4l0,0h-2.9l0,0V794.4z"/>
				<path id="_x32_2" d="M374.7,777.9c1,0,1.6-0.2,2.2-0.6c0.6-0.5,1-1.1,1-1.9c0-0.8-0.2-1.3-0.8-1.8c-0.5-0.5-1.3-0.8-2.1-0.8
					c-1,0-1.8,0.3-2.2,0.6c-0.5,0.5-0.8,1.1-0.8,1.9c0,0.8,0.3,1.4,0.8,1.9C373.4,777.8,373.9,777.9,374.7,777.9z M367.3,772
					c-0.5,0.6-0.7,1.4-0.7,2.2c0,1.1,0.5,2.1,1.6,2.7c1,0.8,2.4,1.1,4.2,1.1l0,0l0,0c-1.3-0.6-1.9-1.8-1.9-3c0-1.3,0.5-2.2,1.3-2.9
					c0.6-0.6,1.8-1.1,3-1.1c1.3,0,2.4,0.5,3.2,1.3c1,0.8,1.3,1.9,1.3,3c0,1.4-0.5,2.6-1.6,3.4c-1.1,0.8-2.6,1.1-4.7,1.1
					c-2.4,0-4.3-0.5-5.6-1.6c-1.5-1-2.2-2.4-2.2-4c0-1,0.2-1.8,0.5-2.2l0,0H367.3z"/>
			</g>
		</g>
		<path id="_x32_3" d="M373.1,763.6h1.4v5.3h-1.4V763.6z"/>
		<g>
			<defs>
				<polygon id="SVGID_15_" points="5.6,-6.8 5.6,1115.8 5.6,1115.8 799.1,1115.8 799.1,1115.8 799.1,-6.8 				"/>
			</defs>
			<clipPath id="SVGID_16_">
				<use xlink:href="#SVGID_15_"  style="overflow:visible;"/>
			</clipPath>
			<g class="st9">
				<path id="_x32_4" d="M369.7,760c0.8,0,1.6-0.3,2.1-0.8s0.8-1.1,0.8-1.9c0-0.6-0.2-1.3-0.6-1.8c-0.5-0.5-1.1-0.8-1.9-0.8
					c-1,0-1.8,0.3-2.4,0.8c-0.6,0.5-1,1.1-1,1.9c0,0.7,0.3,1.3,0.8,1.8C368.1,759.7,368.8,760,369.7,760z M377.3,760.9
					c0.5-0.8,0.6-1.6,0.6-2.4c0-1.3-0.5-2.2-1.4-2.9c-1-0.6-2.2-1-4-1l0,0c1.1,0.6,1.6,1.6,1.6,3c0,1.1-0.3,2.1-1.1,2.9
					c-0.8,0.6-1.8,1.1-3,1.1s-2.4-0.5-3.4-1.3c-0.8-0.8-1.3-1.9-1.3-3.2c0-1.3,0.6-2.4,1.6-3.2c1.1-0.8,2.7-1.1,4.7-1.1
					c2.6,0,4.5,0.5,5.9,1.4c1.3,1,1.9,2.4,1.9,4.2c0,1-0.2,1.8-0.5,2.4l0,0H377.3z"/>
				<path id="_x32_5" d="M366.7,747.8h5.3v-9.6h-5.3V747.8z M373.2,747.8h5.5v-9.6h-5.5V747.8z M365.4,749.3v-12.5h15.9v1.4H380v9.6
					h1.3v1.5H365.4z"/>
				<path id="_x32_6" d="M378.9,728.9v-5.4h-5.3v4.5h-1.3v-4.5h-3.5V722h3.5v-4.6h1.3v4.6h5.3v-5.8h1.3v12.7H378.9z M366.4,733.2
					v-5.1c-0.8-0.3-1.4-0.5-2.2-0.8l0,0l0.3-1.4c0.6,0.2,1.3,0.5,1.9,0.6l0,0v-10.2l0,0h1.3l0,0v10.9c1.6,0.6,3,1.4,4.5,2.4l0,0h9.3
					l0,0v1.3l0,0h-7.5c0.8,0.6,1.6,1.4,2.2,2.1c-0.3,0.3-0.8,0.5-1.3,0.8c-2.2-2.1-4.7-3.8-7.2-5l0,0v4.5l0,0H366.4z"/>
				<path id="_x32_7" d="M372.8,713.1l0.8-1.3c1.4,0.8,2.9,1.8,4.3,2.9c-0.2,0.3-0.5,0.6-0.8,1.1
					C375.7,714.7,374.2,713.9,372.8,713.1z M373.1,701.5l-0.5-1.4c1.5-0.8,3.1-1.4,4.6-1.9l0,0l0.6,1.3
					C376.1,700.2,374.5,700.9,373.1,701.5z M364.1,704.2v-1.4h2.1v-4.5h1.3v4.5h1.6v1.4h-1.6v5.4h1.6v1.3h-1.6v4.7h-1.3V711h-2.1
					v-1.3h2.1v-5.4H364.1z M370.5,714.5V709c-0.6,0-1.3,0-1.9,0l0,0v-1.4c0.6,0,1.3,0,1.9,0l0,0v-5.9c3.5,0,5.9,0.2,7.5,0.3
					c2.1,0.2,3.1,1.1,3.1,3.1c0,1.1,0,2.1-0.2,3.2c-0.3,0-1,0.2-1.6,0.3l0,0v-0.2c0.2-1.3,0.2-2.2,0.2-3.2c0-1.1-0.5-1.8-1.8-1.9
					c-1.6,0-3.5-0.2-5.8-0.2l0,0v4.6c4.5,0.2,7.7,2.4,9.6,6.6c-0.5,0.3-0.8,0.6-1.1,1c-1.6-3.7-4.5-5.8-8.5-6.1l0,0v5.3l0,0H370.5z"
					/>
				<path id="_x32_8" d="M369.7,686.8l-0.5-1.3c1.4-0.6,2.7-1.3,4.2-1.8l0,0l0.5,1.3C372.6,685.5,371.2,686.1,369.7,686.8z
					 M369.7,692.2l-0.5-1.1c1.4-0.6,2.9-1.3,4-1.8l0,0l0.7,1.3C372.6,691.1,371.2,691.6,369.7,692.2z M369.1,696.4l0.3-1.4
					c1.9,0.5,3.5,1,5,1.4c-0.2,0.5-0.3,1-0.3,1.3C372.4,697.2,370.8,696.7,369.1,696.4z M364.4,694.2v-1.3l0,0h7.2
					c4.5,0,7.7,1.1,9.8,3.4c-0.3,0.3-0.8,0.6-1.1,1.1c-1.9-2.1-4.8-3.2-9.1-3.2l0,0H364.4z M364.8,688.7v-1.4h16.2v1.4H364.8z
					 M364.4,683.1v-1.4h16.8v1.4H364.4z"/>
				<path id="_x32_9" d="M376.3,677.2l-0.8-1.1c0.8-0.8,1.8-1.6,2.7-2.6l0,0l1,1.3C378.2,675.4,377.3,676.2,376.3,677.2z
					 M378.4,668.4c-1-1-1.9-1.8-2.9-2.4l0,0l0.8-1.3c1,1,1.9,1.8,2.9,2.7l0,0L378.4,668.4z M365.7,670.9c1.6,1.1,3.1,2.9,4.5,5.1
					l0,0v-10.3C369.1,667.6,367.5,669.3,365.7,670.9z M379.5,679.1v-7.5l0,0h-4.3l0,0v6.4l0,0h-1.3l0,0v-6.4l0,0h-2.4l0,0v4.6l0,0
					h-1.3c0.6,0.8,1.1,1.8,1.6,2.7c-0.5,0.2-0.8,0.5-1.3,0.8c-1.8-3.8-4-6.6-6.2-8.2l0,0v-1.9l0,0l0.5,0.3c2.4-1.9,4.2-4.5,5.4-7.8
					c0.5,0.3,1,0.6,1.4,0.8c-0.3,1-0.8,1.9-1.3,2.7l0,0h1.1l0,0v4.7l0,0h2.4l0,0v-6.4l0,0h1.3l0,0v6.4l0,0h4.3l0,0v-7.5l0,0h1.3l0,0
					v16.3l0,0H379.5z"/>
				<path id="_x33_0" d="M368.6,651.4l-0.8-1c0.5-0.5,1-1,1.8-1.8l0,0l0.8,1C369.7,650.3,369.1,650.9,368.6,651.4z M376.5,654.3
					v-7.2h1.3v7.2H376.5z M369.1,660c1.1-0.6,2.2-1.4,3.5-2.2c-1.6-0.6-3.2-1-5-1.3l0,0v4.8l0,0h-1.3l0,0v-6.1l0,0h1.3
					c2.2,0.3,4.3,0.8,6.2,1.6c1.1-0.6,2.4-1.4,3.5-2.1l0,0l0.8,1.1c-1,0.6-1.9,1.1-2.9,1.8c1.6,0.8,3.2,1.9,4.7,3.2
					c-0.5,0.2-0.8,0.5-1.1,0.8c-1.4-1.3-3-2.4-4.8-3.2c-1.6,1-3.1,1.9-4.3,2.7l0,0L369.1,660z M367.3,652.3h6.1l0,0v-7.5
					c1.9,0,3.7,0,5,0.2c1.9,0.2,2.9,1.1,2.9,3l0,0v3.4c-0.5,0-1,0.2-1.4,0.2c0-1.1,0.2-2.2,0.2-3.4c0-1.1-0.7-1.8-1.6-1.9
					c-1.1,0-2.4-0.2-3.8-0.2l0,0v7.5l0,0H366l0,0v-1.9c-0.6-0.3-1.3-0.5-1.9-0.6l0,0l0.5-1.4c0.3,0.2,1,0.5,1.4,0.6l0,0v-4.5
					c1.6,0,2.9,0,4.2,0c1.4,0.2,2.2,0.8,2.2,2.2c0,0.6,0,1.4,0,2.4c-0.5,0-1,0.2-1.4,0.2c0.2-0.8,0.2-1.6,0.2-2.4
					c0-0.7-0.3-1-1.1-1.1c-0.8,0-1.8,0-2.7,0l0,0V652.3z"/>
				<path id="_x33_1" d="M364.6,641.9c0.8-1,1.4-1.8,2.2-2.7c0.5,0.5,0.8,0.8,1.1,1.1c-0.8,0.6-1.6,1.4-2.6,2.6l0,0L364.6,641.9z
					 M369.1,642.7c0.8-0.8,1.4-1.8,2.4-2.9c0.5,0.5,0.8,0.8,1.1,1.1c-0.8,0.6-1.6,1.6-2.6,2.7l0,0L369.1,642.7z M366.2,628.6v2.6
					h3.4v-2.6H366.2z M374.1,631.4v-2.7l0,0h-3.4l0,0v2.6C371.6,631.2,372.8,631.2,374.1,631.4z M374.2,641.3c0.2-0.5,0.5-1,0.6-1.4
					c1.3,0.5,3.4,1,6.4,1.8l0,0l-0.6,1.4C378.5,642.4,376.5,641.8,374.2,641.3z M376.8,635.2h-3.9v2.6h3.9V635.2z M371.8,639.1v-1.9
					h-2.9v2.4h-1.1v-2.4h-3.5v-1.3h3.5v-2.6h1.1v2.6h2.9v-1.9h6.1v3.8h1.3v1.3H371.8z M365.1,632.5v-5.1l0,0h14.4
					c1.1,0,1.6,0.6,1.6,1.8c0,0.6,0,1.3,0,1.9c-0.3,0.2-0.8,0.2-1.4,0.3c0.2-1,0.2-1.6,0.2-1.9c0-0.5-0.2-0.8-0.8-0.8l0,0h-4l0,0
					v2.7c2.4,0.2,4.5,1.1,6.4,2.9c-0.3,0.3-0.6,0.8-1,1.1c-1-1.1-2.2-1.9-3.4-2.2c-1.1-0.5-3-0.6-5.8-0.6l0,0H365.1z"/>
				<path id="_x33_2" d="M373.9,615.3l-0.7-1c0.7-0.6,1.3-1.3,1.8-1.8l0,0l0.8,1.1C375.2,614.2,374.5,614.9,373.9,615.3z
					 M376.3,622.4v-4.8h-3.5v4.2h-1.1v-4.2h-2.4v4.5h-1.1v-10.4h1.1v4.5h2.4V612h1.1v4.2h3.5v-4.8h1.3v11.1H376.3z M366.4,610.5
					v12.7h13v-12.7H366.4z M365.1,624.5v-15.4h16.3v1.4h-0.8v12.7h1v1.3H365.1z"/>
				<path id="_x33_3" d="M373.9,594l-0.7-1.3c1.9-1,3.9-1.8,5.8-2.7l0,0l0.6,1.3C378.1,592.1,376.1,592.9,373.9,594z M373.2,599.5
					l0.5-1.3c2.2,0.8,4.2,1.8,6.1,2.7c-0.3,0.5-0.5,0.8-0.7,1.1C377.3,601.1,375.3,600.1,373.2,599.5z M365.6,600.8v-9.5h1.3v9.5
					H365.6z M370,601.7v-11.4l0,0h1.3l0,0v5l0,0h7.8c1.3,0,2.1,0.8,2.1,2.1c0,0.6,0,1.3,0,2.2c-0.6,0-1.1,0.2-1.6,0.2
					c0.2-0.8,0.2-1.6,0.2-2.1c0-0.6-0.3-1-1-1l0,0h-7.5l0,0v5l0,0H370z M374.4,601.6c2.2-0.3,3.5,0.2,3.8,1.6c0,0.5,0.2,1.1,0,1.8
					c-0.5,0.2-1,0.3-1.4,0.5c0.2-0.6,0.2-1.3,0.2-1.8c-0.2-0.8-1-1.1-2.6-0.8c-0.8,0.2-1.9,0.8-3.2,1.8c-1.4-0.5-3-1-4.6-1.4l0,0
					v2.2l0,0h15.1l0,0v1.4l0,0h-16.3l0,0v-5.1l0,0h1.3c1.8,0.5,3.2,1,4.5,1.3C372.3,602.2,373.4,601.6,374.4,601.6z"/>
				<path id="_x33_4" d="M370.5,585.7v-9.8h1.3v9.8H370.5z M365.7,580.7c2.9,2.4,5.1,5.1,6.7,8c-0.5,0.3-0.8,0.6-1.3,1
					c-1.8-3.4-4-6.1-6.9-8.2l0,0v-1.9l0,0l0.5,0.3c2.7-2.1,4.8-4.6,5.9-8c0.5,0.3,1,0.6,1.6,1C370.5,576.3,368.4,579,365.7,580.7z
					 M376.5,578.2c1.4-1.8,2.9-3.2,4.2-4.5l0,0l1.1,1.3c-0.5,0.3-1,0.8-1.4,1.3c0.2,2.9,0.3,5.8,0.5,9c0.2,0.5,0.2,1,0.5,1.4l0,0
					l-1.4,0.8c-0.3-0.6-0.5-1.1-1-1.4c-1-1.1-2.1-2.1-3.4-3l0,0v5.9l0,0h-1.4l0,0v-16.2l0,0h1.4l0,0v8.5c1.4,1.3,2.7,2.4,4,3.5
					c-0.2-2.6-0.3-5.1-0.5-7.4c-0.5,0.5-1.1,1.1-1.8,1.8l0,0L376.5,578.2z"/>
				<path id="_x33_5" d="M364.6,569.5c0.8-0.8,1.8-1.6,2.7-2.6l0,0l1,1.3c-1.1,0.8-2.1,1.6-2.9,2.4l0,0L364.6,569.5z M364.8,562.6
					l-0.6-1.1c1.3-0.8,2.4-1.4,3.7-2.2l0,0l0.8,1.3C367,561.4,365.7,562,364.8,562.6z M375.7,565.7c0.5,0,1.1-0.2,1.6-0.2
					c0.6,0.8,1.3,1.6,2.1,2.6c0.2,0.3,0.5,0.6,0.8,0.8l0,0L379,570c-0.3-0.5-1-0.6-1.8-0.6l0,0h-5.9l0,0v2.2l0,0H370l0,0v-3.5l0,0
					h7.5C376.9,567.3,376.3,566.5,375.7,565.7z M365.6,555.4c4.8,0.6,8.5,2.1,11.1,4.2c1.4-1.4,2.6-3.4,3.4-5.5
					c0.5,0.3,1,0.8,1.4,1.1c-1.1,2.1-2.2,4-3.7,5.5c1.4,1.6,2.7,3.4,3.8,5.6c-0.5,0.2-0.8,0.5-1.4,1c-1-2.2-2.1-4-3.5-5.6
					c-2.7,2.2-6.4,3.7-11.1,4.2l0,0l-0.3-1.5c4.3-0.3,7.7-1.6,10.3-3.7c-2.6-2.1-5.9-3.4-10.3-3.8l0,0L365.6,555.4z"/>
				<path id="_x33_6" d="M373.7,550.8v-5.3h-4.5v5.3H373.7z M369.2,538.6v5.4h4.5v-5.4H369.2z M368,552.2v-6.7h-3.8v-1.4h3.8v-6.9h8
					v1.5h-1v5.4h6.6v1.4H375v5.3h1v1.4H368z"/>
				<path id="_x33_7" d="M364,527.1c1.9-1.1,3.5-2.1,5.1-2.9c0.2,0.6,0.5,1.1,0.6,1.4c-1.8,0.8-3.5,1.8-5.1,2.7l0,0L364,527.1z
					 M369.4,533.5l0.5-1.3c2.4,0.5,4.8,1.1,7.2,1.9l0,0l-0.5,1.3C374.4,534.8,372,534.1,369.4,533.5z M368.9,521c1.9-1,4-1.9,6.4-3
					l0,0l0.8,1.4c-2.4,1-4.5,1.9-6.6,2.9l0,0L368.9,521z M367.5,530.9v-1.4l0,0h10.4c1,0,1.6-0.5,1.6-1.5l0,0v-3.7
					c0-1.1-0.5-1.6-1.3-1.8c-0.8-0.2-1.6-0.3-2.7-0.3c0.3-0.5,0.5-1,0.6-1.6c1.3,0.2,2.1,0.3,2.7,0.5c1.3,0.3,1.9,1.3,1.9,2.9l0,0
					v4.3c0,1.8-0.8,2.6-2.6,2.6l0,0H367.5z"/>
				<path id="_x33_8" d="M365.4,515.4l-0.8-1.1c1-0.8,1.8-1.4,2.6-2.1l0,0l0.8,1.3C367,514.1,366.2,514.8,365.4,515.4z M364.8,510.6
					l-0.6-1.1c1-0.6,1.9-1.3,2.9-1.9l0,0l0.8,1.1C366.8,509.3,365.7,509.9,364.8,510.6z M367.5,505.8c-1-0.8-2.1-1.6-3.4-2.2l0,0
					l0.8-1.4c1.1,0.8,2.2,1.6,3.4,2.6l0,0L367.5,505.8z M368.4,517.2v-17l0,0h1.3l0,0v5.1c1.9-1.3,3.2-3,4-5.4
					c0.3,0.3,0.8,0.8,1.3,1.1c-1.3,2.6-2.9,4.5-5.3,5.6l0,0v4.2c2.1,1.3,4,3.2,5.6,5.9c-0.5,0.2-0.8,0.5-1.3,1
					c-1.1-2.4-2.6-4.2-4.3-5.3l0,0v4.8l0,0H368.4z M376.6,516.5v-7.1h-2.2v3.9h-1.3v-3.9h-2.6V508h2.6v-3.8h1.3v3.8h2.2v-7.2h1.3
					v7.2h3.7v1.4h-3.7v7.1H376.6z"/>
				<path id="_x33_9" d="M371,485.1l-0.5-1.3c1.4-0.6,3.1-1.3,4.6-1.9l0,0l0.6,1.5C374.2,483.8,372.6,484.5,371,485.1z M370.4,497
					l0.6-1.4c1.8,0.8,3.5,1.6,5.3,2.6c-0.3,0.3-0.5,0.8-0.6,1.3C374.1,498.4,372.3,497.6,370.4,497z M367.5,498.4v-5.1
					c-1.1,0-2.2-0.2-3.2-0.2l0,0v-1.4c1,0,2.1,0,3.2,0.2l0,0v-6.6c4.6,0.2,8,0.3,9.9,0.3c2.2,0.2,3.5,1.1,3.5,3c0,1.1,0,2.2-0.2,3.4
					c-0.3,0-1,0.2-1.6,0.2c0.2-1.1,0.2-2.2,0.2-3.4s-0.8-1.8-2.2-1.8c-2.4-0.2-5.1-0.2-8.2-0.3l0,0v5.1c3.5,0.2,6.2,0.6,7.7,1.4
					c1.6,0.8,3.2,2.4,4.8,5c-0.5,0.2-0.8,0.5-1.3,0.8c-1.5-2.4-2.9-3.8-4.3-4.5c-1.3-0.6-3.5-1.1-6.9-1.3l0,0v5.1l0,0H367.5z"/>
				<path id="_x34_0" d="M371.8,472.1l-0.6-1.1c1.4-1.3,2.7-2.4,3.9-3l0,0l1,1.3C374.7,470.1,373.2,471,371.8,472.1z M368.4,475.4v4
					h4.2v-4H368.4z M378.4,479.4v-4h-4.5v4H378.4z M370.7,473.6c-1.8-1-3.9-1.9-6.6-2.7l0,0l0.5-1.4c0.8,0.3,1.6,0.6,2.4,0.8l0,0
					v-5.6c6.1,0.2,9.8,0.3,11.4,0.3c1.9,0.2,2.7,1.1,2.7,2.9c0,1.1,0,2.2,0,3.4c-0.6,0-1.1,0.2-1.6,0.3l0,0v-0.2
					c0.2-1.1,0.3-2.2,0.3-3.2c0-1.1-0.7-1.6-1.8-1.8c-1.8,0-5-0.2-9.8-0.2l0,0v4.6c1.1,0.5,2.2,1,3,1.6
					C371.2,472.8,370.8,473.1,370.7,473.6z M367,480.6v-1.8c-1-0.3-1.9-0.8-2.9-1l0,0l0.5-1.6c0.8,0.5,1.8,0.8,2.4,1.1l0,0v-3.5l0,0
					h14.1l0,0v1.5l0,0h-1.4l0,0v4l0,0h1.6l0,0v1.3l0,0H367z"/>
				<path id="_x34_1" d="M365.2,449.7l4.3,1v1.6l-4.3-1.4V449.7z M365.2,446.7l4.3,1.1v1.4l-4.3-1.3V446.7z"/>
				<path id="_x34_2" d="M373.7,442.7v-5.3h-4.5v5.3H373.7z M369.2,430.5v5.4h4.5v-5.4H369.2z M368,444.1v-6.7h-3.8v-1.4h3.8v-6.9h8
					v1.5h-1v5.4h6.6v1.4H375v5.3h1v1.4H368z"/>
				<path id="_x34_3" d="M369.4,427.3c-1.4-2.1-3.2-3.8-5.3-5l0,0l0.6-1.3c0.8,0.5,1.6,1.1,2.4,1.6l0,0h6.7l0,0v1.4l0,0h-5.3
					c0.8,0.8,1.6,1.6,2.2,2.4C370.4,426.8,369.9,427,369.4,427.3z M375.8,427.1v-7.8h-2.4V418h2.4v-7.8h1.3v7.8h4.5v1.3h-4.5v7.8
					H375.8z M370.2,422.2c-0.3-1.6-0.8-2.9-1.4-4.3l0,0h-4.3l0,0v-1.3l0,0h3.8c-1-1.8-1.9-3.2-3-4.6l0,0l1-1
					c1.3,1.6,2.4,3.5,3.4,5.6l0,0h1.4c0.8,0,1.3-0.5,1.3-1.4l0,0v-1.9c0-0.8-0.5-1.4-1.1-1.4c-0.8-0.2-1.4-0.3-2.1-0.3
					c0.2-0.6,0.3-1,0.5-1.4c0.8,0.2,1.4,0.3,1.9,0.5c1.3,0.2,1.9,1,1.9,2.4l0,0v2.7c0,1.6-0.6,2.2-2.1,2.2l0,0h-1.1
					c0.5,1.1,1,2.2,1.4,3.5C371.2,421.5,370.7,421.9,370.2,422.2z"/>
				<path id="_x34_4" d="M372.6,405.7v-5.6c-0.8-0.2-1.6-0.3-2.7-0.3l0,0v2.9c1,0.5,1.8,1.1,2.6,1.8c-0.3,0.3-0.6,0.6-1,1.1
					c-1.4-1.3-3-2.2-4.8-3l0,0l0.3-1.3c0.6,0.3,1.1,0.5,1.6,0.8l0,0v-8.6l0,0h1.3l0,0v5c1,0,1.9,0.2,2.7,0.3l0,0v-6.1l0,0h1.3l0,0
					v6.4c0.3,0,0.5,0,0.6,0.2c1-1.9,2.1-4,3.2-6.1l0,0l1.4,0.8c-1.1,1.8-2.2,3.7-3.5,5.8c1.4,1.1,2.7,2.7,3.7,5.3
					c-0.5,0.2-0.8,0.5-1.3,1c-1.1-3-2.6-4.8-4.2-5.5l0,0v5.3l0,0H372.6z M365.1,407.9v-15.5h1.3v14.1h13.1v-14.4h1.3v15.9H365.1z"/>
				<path id="_x34_5" d="M365.2,389.2l-0.8-1c0.8-0.8,1.8-1.4,2.6-2.1l0,0l1,1.1C366.8,387.9,366,388.5,365.2,389.2z M364.8,384.5
					l-0.6-1.3c1-0.6,1.9-1.3,2.9-1.9l0,0l0.6,1.3C366.7,383.1,365.7,383.7,364.8,384.5z M367.2,379.4c-1-0.8-1.8-1.4-2.7-2.1l0,0
					l1-1.3c0.8,0.6,1.8,1.4,2.7,2.4l0,0L367.2,379.4z M368.1,390.6v-16h3.5v1.3h-2.2v13.3h2.2v1.4H368.1z M375.3,391.3v-8.3l0,0h-1
					l0,0l-1.9-3.4l0,0v8.3l0,0h-1.3l0,0v-10.4l0,0h1.4l0,0l2.2,4l0,0h0.5l0,0V374l0,0h1.3l0,0v7.5l0,0h2.6c1.5,0,2.1,0.8,2.1,2.1
					c0,0.8,0,1.8,0,2.7c-0.3,0.2-0.8,0.2-1.4,0.3c0-1,0.2-1.9,0.2-2.7c0-0.6-0.3-1-1-1l0,0h-2.4l0,0v8.3l0,0H375.3z"/>
				<path id="_x34_6" d="M370.5,369.5v-9.8h1.3v9.8H370.5z M365.7,364.5c2.9,2.4,5.1,5.1,6.7,8c-0.5,0.3-0.8,0.6-1.3,1
					c-1.8-3.4-4-6.1-6.9-8.2l0,0v-1.9l0,0l0.5,0.3c2.7-2.1,4.8-4.6,5.9-8c0.5,0.3,1,0.6,1.6,1C370.5,360,368.4,362.7,365.7,364.5z
					 M376.5,361.9c1.4-1.8,2.9-3.2,4.2-4.5l0,0l1.1,1.3c-0.5,0.3-1,0.8-1.4,1.3c0.2,2.9,0.3,5.8,0.5,9c0.2,0.5,0.2,1,0.5,1.4l0,0
					l-1.4,0.8c-0.3-0.6-0.5-1.1-1-1.4c-1-1.1-2.1-2.1-3.4-3l0,0v5.9l0,0h-1.4l0,0v-16.2l0,0h1.4l0,0v8.5c1.4,1.3,2.7,2.4,4,3.5
					c-0.2-2.6-0.3-5.1-0.5-7.4c-0.5,0.5-1.1,1.1-1.8,1.8l0,0L376.5,361.9z"/>
				<path id="_x34_7" d="M370.4,341.1v4.8h1.6v-4.8H370.4z M375,352.5v-5.1h-1.8v4.6L375,352.5z M364.1,344.3v-1.6
					c0.5,0.3,1.1,0.6,1.6,0.8l0,0v-5.4l0,0h1.1l0,0v4.3c0.5-0.5,1-1,1.6-1.4l0,0l0.6,1.1l0,0v-2.2l0,0h4.8l0,0v1.3l0,0h-0.7l0,0v4.8
					l0,0h1.8l0,0v-7.1c1,0,2.1,0,2.9,0.2c1.6,0,2.2,0.8,2.2,2.2c0,0.6,0,1.6,0,2.6c-0.3,0.2-0.8,0.3-1.3,0.3c0-1.1,0-1.9,0-2.6
					c0-0.8-0.3-1.1-1-1.3c-0.6,0-1.1,0-1.8,0l0,0v5.6l0,0h5.4l0,0v1.4l0,0h-5c1.9,1.6,3.5,4,4.5,7.4c-0.3,0.2-0.6,0.5-1.1,0.6
					c-0.8-2.7-2.1-5.1-3.9-6.7l0,0v5.3l0,0H375l0,0l-3.1-0.8l0,0v-5.8l0,0h-1.6l0,0v6.1l0,0h-1.3l0,0v-3.4c-0.6,0.5-1.1,1-1.8,1.4
					l0,0l-0.5-0.8l0,0v1.3c1,0.8,1.8,1.6,2.6,2.4c-0.3,0.3-0.6,0.6-1,1c-1.1-1.4-2.7-2.7-4.3-3.5l0,0v-1.4c0.5,0.3,1.1,0.6,1.6,1
					l0,0v-5.1l0,0h1.1l0,0v4.2c0.5-0.5,1-1,1.6-1.4l0,0l0.6,1l0,0v-7.8c-0.6,0.5-1.1,1-1.8,1.4l0,0l-0.5-0.8l0,0v1.4
					c0.7,0.5,1.5,1,1.9,1.6c-0.2,0.2-0.5,0.5-0.8,1C367,345.8,365.7,345,364.1,344.3z"/>
				<path id="_x34_8" d="M377.9,337v-16.8h1.6V337H377.9z M366.4,335.7v-14.2h1.6v14.2H366.4z"/>
				<path id="_x34_9" d="M370.7,319v-7.7h-6.4v-1.6h6.4v-7.8h1.4v7.8h9.3v1.6h-9.3v7.7H370.7z"/>
			</g>
		</g>
		<path id="_x35_0" d="M371.5,283.6h1.6v17.6h-1.6V283.6z"/>
		<g>
			<defs>
				<polygon id="SVGID_17_" points="5.6,-6.8 5.6,1115.8 5.6,1115.8 799.1,1115.8 799.1,1115.8 799.1,-6.8 				"/>
			</defs>
			<clipPath id="SVGID_18_">
				<use xlink:href="#SVGID_17_"  style="overflow:visible;"/>
			</clipPath>
			<g class="st10">
				<path id="_x35_1" d="M365.2,281.7c1-1,2.2-2.1,3.5-3.2l0,0l1.1,1.1c-1.6,1.1-2.7,2.2-3.7,3.1l0,0L365.2,281.7z M371.8,279.6
					c0.3-0.6,0.6-1,1-1.4c2.6,1.6,5,2.7,6.9,3.7l0,0l-1,1.4C376.9,282,374.5,280.9,371.8,279.6z M371.6,269.5c-1-0.5-1.9-1-3-1.4
					l0,0v7c1.1,0.5,2.2,1,3.4,1.6c-0.3,0.5-0.6,0.8-0.8,1.3c-2.2-1.3-4.6-2.4-7-3l0,0l0.5-1.3c1,0.2,1.8,0.5,2.7,0.8l0,0v-7.9l0,0
					h1.3c1.3,0.5,2.4,1,3.5,1.6C372,268.6,371.8,269,371.6,269.5z M369.4,271.9c0.5,0,1.1,0,1.8,0c4-0.8,6.9-2.9,8.8-6.2
					c0.5,0.5,1,0.8,1.3,1.1c-2.1,3-4.5,4.8-7.5,5.8c3.2,0.6,5.8,2.9,7.8,6.2c-0.3,0.3-0.8,0.6-1.3,1c-1.9-3.5-4.5-5.6-8-6.2
					c-0.8-0.2-1.8-0.2-2.9-0.2l0,0V271.9z"/>
				<path id="_x35_2" d="M364.4,255.1l0.5,0.5c2.6-2.1,4.5-4.7,5.8-7.9c0.5,0.3,1,0.6,1.4,0.8c-1.6,3.2-3.7,5.8-6.2,7.9
					c2.4,1.8,4.5,4.5,6.4,8c-0.3,0.2-0.8,0.5-1.3,0.8c-1.8-3.5-4-6.2-6.6-8.2l0,0V255.1z M379.5,264.4v-7.2h-3.2v5.6H375v-5.6h-2.6
					v5h-1.3v-11.5h1.3v5.1h2.6V250h1.3v5.8h3.2v-7.4h1.3v16H379.5z"/>
				<path id="_x35_3" d="M373.9,236.9l-0.7-1c0.7-0.6,1.3-1.1,1.8-1.6l0,0l0.8,1C375.2,235.9,374.5,236.4,373.9,236.9z M376.3,243.9
					v-4.8h-3.5v4.3h-1.1v-4.3h-2.4v4.6h-1.1v-10.6h1.1v4.6h2.4v-4.3h1.1v4.3h3.5v-5h1.3v11H376.3z M366.4,232v12.6h13V232H366.4z
					 M365.1,246.1v-15.4h16.3v1.3h-0.8v12.6h1v1.5H365.1z"/>
				<path id="_x35_4" d="M365.9,229l-0.3-1c1.1-0.5,2.4-1,3.5-1.3l0,0l0.5,1.1C368.1,228.2,366.8,228.7,365.9,229z M369.1,224.8
					c-1.1-0.5-2.2-1-3.5-1.3l0,0l0.3-1.1c1.3,0.5,2.6,1,3.7,1.4l0,0L369.1,224.8z M377.3,220.4v-6.2H376v6.2H377.3z M373.7,214.1
					v6.2h1.1v-6.2H373.7z M377.6,229.3c-1.8-1.1-3.7-2.1-5.8-2.9l0,0v2.6l0,0h-1.1l0,0v-2.7l0,0h-6.4l0,0v-1.1l0,0h6.4l0,0v-2.2l0,0
					h1.1l0,0v2.2l0,0h2.1l0,0l-0.5-0.6c1-1,1.8-1.8,2.4-2.4l0,0l1,1c-1,0.8-1.8,1.4-2.4,2.1l0,0h7.2l0,0v1.1l0,0h-7.5
					c1.8,0.8,3.5,1.6,5,2.4C378.4,228.8,377.9,229.2,377.6,229.3z M370.4,222.4v-4.6h-1.3v3.8H368v-3.8h-1.1v4.3h-1.1v-4.3h-1.6
					v-1.1h1.6V212h1.1v4.6h1.1v-4.2h1.1v4.2h1.3v-5h1.1v10.7H370.4z M381.4,220.4v1.3l0,0h-8.8l0,0v-8.8l0,0h6.7
					c1.3,0,1.9,0.6,1.9,1.9l0,0v2.9c-0.3,0-0.8,0.2-1.3,0.2c0-1,0.2-1.9,0.2-2.6c0-0.8-0.3-1.1-1-1.1l0,0h-0.8l0,0v6.2l0,0H381.4z"
					/>
				<path id="_x35_5" d="M373.1,207.2l-0.8-0.8c0.6-0.8,1.3-1.3,1.8-1.9l0,0l1,1C374.2,206.1,373.6,206.7,373.1,207.2z M364.6,209.3
					l-0.5-1.1c0.8-0.6,1.6-1.1,2.4-1.4l0,0l0.6,1.3C366.2,208.5,365.4,208.8,364.6,209.3z M375.2,203.2v-3h-2.9v3H375.2z
					 M368.3,195.8v3h2.9v-3H368.3z M368.3,203.2h2.9v-3h-2.9V203.2z M375.2,198.9v-3h-2.9v3H375.2z M368.9,211.1h-1.3l0,0v-5.8l0,0
					h1.3c1.1,0.6,2.1,1.3,3.2,2.1l0,0h9.3l0,0v1.3l0,0h-7.7c0.6,0.6,1.3,1.3,2.1,2.1c-0.5,0-1.1,0.2-1.6,0.5
					c-1.4-1.8-3.2-3.2-5.3-4.3l0,0V211.1z M364.1,200.2v-1.3h3v-4.3h10.1v1.3h-0.8v3h5v1.3h-5v3h0.8v1.3h-10.1v-4.3H364.1z"/>
				<path id="_x35_6" d="M372.6,189.4v-5.6c-0.8-0.2-1.6-0.3-2.7-0.3l0,0v2.9c1,0.5,1.8,1.1,2.6,1.8c-0.3,0.3-0.6,0.6-1,1.1
					c-1.4-1.3-3-2.2-4.8-3l0,0l0.3-1.3c0.6,0.3,1.1,0.5,1.6,0.8l0,0v-8.6l0,0h1.3l0,0v5c1,0,1.9,0.2,2.7,0.3l0,0v-6.1l0,0h1.3l0,0
					v6.4c0.3,0,0.5,0,0.6,0.2c1-1.9,2.1-4,3.2-6.1l0,0l1.4,0.8c-1.1,1.8-2.2,3.7-3.5,5.8c1.4,1.1,2.7,2.7,3.7,5.3
					c-0.5,0.2-0.8,0.5-1.3,1c-1.1-3-2.6-4.8-4.2-5.4l0,0v5.3l0,0H372.6z M365.1,191.7v-15.5h1.3v14.1h13.1v-14.4h1.3v15.8H365.1z"/>
				<path id="_x35_7" d="M401.3,943.4l-0.8-1c0.8-0.8,1.8-1.4,2.6-2.1l0,0l1,1.1C402.9,942.1,402.1,942.7,401.3,943.4z M400.8,938.7
					l-0.6-1.1c1-0.8,1.8-1.4,2.9-2.1l0,0l0.6,1.3C402.7,937.3,401.8,937.9,400.8,938.7z M403.2,933.6c-1-0.6-1.8-1.4-2.7-2.1l0,0
					l0.8-1.3c1,0.6,1.9,1.6,2.7,2.4l0,0L403.2,933.6z M404.2,944.8v-16h3.5v1.3h-2.2v13.3h2.2v1.4H404.2z M411.4,945.5v-8.3l0,0h-1
					l0,0l-1.9-3.4l0,0v8.3l0,0h-1.3l0,0v-10.4l0,0h1.4l0,0l2.2,4l0,0h0.5l0,0v-7.5l0,0h1.3l0,0v7.5l0,0h2.6c1.4,0,2.1,0.8,2.1,2.1
					c0,0.8,0,1.8,0,2.9c-0.3,0-0.8,0-1.5,0.2c0-1,0.2-1.9,0.2-2.7c0-0.6-0.3-1-1-1l0,0h-2.4l0,0v8.3l0,0H411.4z"/>
				<path id="_x35_8" d="M401.3,925.4l-0.8-1.1c0.8-0.6,1.8-1.4,2.6-2.1l0,0l1,1.3C402.9,924.2,402.1,924.8,401.3,925.4z
					 M400.8,920.6l-0.6-1.1c1-0.6,1.8-1.4,2.9-1.9l0,0l0.6,1.3C402.7,919.4,401.8,920,400.8,920.6z M403.2,915.7
					c-1-0.8-1.8-1.6-2.7-2.2l0,0l0.8-1.3c1,0.8,1.9,1.6,2.7,2.4l0,0L403.2,915.7z M404.2,926.7v-16h3.5v1.4h-2.2v13.3h2.2v1.3H404.2
					z M411.4,927.4v-8.2l0,0h-1l0,0l-1.9-3.4l0,0v8.2l0,0h-1.3l0,0v-10.2l0,0h1.4l0,0l2.2,4l0,0h0.5l0,0v-7.5l0,0h1.3l0,0v7.5l0,0
					h2.6c1.4,0,2.1,0.6,2.1,2.1c0,0.8,0,1.6,0,2.7c-0.3,0-0.8,0.2-1.5,0.2c0-1,0.2-1.8,0.2-2.6c0-0.6-0.3-1-1-1l0,0h-2.4l0,0v8.2
					l0,0H411.4z"/>
				<path id="_x35_9" d="M401.5,898.4l-1-1c0.6-1,1.4-2.1,2.2-3l0,0l1.1,1C403.1,896.3,402.3,897.4,401.5,898.4z M414.1,892
					c0.5,0.3,0.8,0.8,1.3,1.1c-2.1,2.9-5,5.3-8.7,6.9l0,0h10.9l0,0v1.4l0,0h-11.1c3.5,1.8,6.6,4,9.1,7.2c-0.5,0.3-0.8,0.6-1.4,1.1
					c-2.2-3.2-5.1-5.8-8.5-7.5l0,0v6.9l0,0h-1.3l0,0v-7.7l0,0h-4.3l0,0V900l0,0h4.3l0,0v-7.7l0,0h1.3l0,0v7
					C409.6,897.4,412.4,895,414.1,892z"/>
				<path id="_x36_0" d="M406.6,887.6v-9.8h1.3v9.8H406.6z M401.8,882.8c2.9,2.2,5.1,5,6.7,7.8c-0.5,0.3-0.8,0.6-1.3,1
					c-1.8-3.4-4-6.1-6.9-8.2l0,0v-1.9l0,0l0.5,0.3c2.7-2.1,4.6-4.6,5.9-8c0.5,0.3,1,0.6,1.6,1C406.6,878.2,404.5,880.9,401.8,882.8z
					 M412.5,880.1c1.4-1.8,2.9-3.2,4.2-4.5l0,0l1.1,1.3c-0.5,0.3-1,0.8-1.4,1.3c0.2,2.9,0.3,5.9,0.5,9c0.2,0.5,0.2,1,0.5,1.4l0,0
					l-1.5,0.8c-0.3-0.6-0.5-1.1-1-1.4c-1-1.1-2.1-2.1-3.4-3l0,0v5.9l0,0h-1.4l0,0v-16.2l0,0h1.4l0,0v8.5c1.4,1.3,2.7,2.4,4,3.5
					c-0.2-2.6-0.3-5.1-0.5-7.4c-0.5,0.5-1.1,1.1-1.8,1.8l0,0L412.5,880.1z"/>
				<path id="_x36_1" d="M400.7,871.5c0.8-0.8,1.8-1.6,2.7-2.6l0,0l1,1.3c-1.1,0.8-2.1,1.6-2.9,2.4l0,0L400.7,871.5z M400.8,864.6
					l-0.6-1.1c1.1-0.8,2.4-1.4,3.7-2.2l0,0l0.8,1.3C403.1,863.3,401.8,863.9,400.8,864.6z M411.7,867.6c0.5,0,1.1-0.2,1.6-0.2
					c0.6,0.8,1.3,1.6,2.1,2.6c0.2,0.3,0.5,0.6,0.8,0.8l0,0l-1.1,1.1c-0.5-0.5-1-0.6-1.8-0.6l0,0h-5.9l0,0v2.2l0,0h-1.3l0,0V870l0,0
					h7.5C413,869.2,412.4,868.4,411.7,867.6z M401.6,857.4c4.8,0.6,8.5,2.1,11.1,4.2c1.4-1.4,2.4-3.4,3.4-5.4c0.5,0.3,1,0.8,1.5,1.1
					c-1.1,2.1-2.4,4-3.7,5.4c1.4,1.6,2.7,3.4,3.9,5.6c-0.5,0.2-0.8,0.5-1.5,1c-1-2.2-2.1-4-3.5-5.6c-2.7,2.2-6.4,3.7-11.1,4.2l0,0
					l-0.3-1.4c4.3-0.3,7.7-1.6,10.3-3.7c-2.6-2.1-5.9-3.4-10.3-3.8l0,0L401.6,857.4z"/>
				<path id="_x36_2" d="M401.9,848.4v4.5h1.1v-4.5H401.9z M405,848.4h-1.1v4.5h1.1V848.4z M413.6,851.6V842h-1v9.6H413.6z
					 M410.6,842v9.6h1.1V842H410.6z M415.9,855.3V838h1v17.3H415.9z M405.9,849.4c0.6-0.5,1.3-1.1,2.2-1.8l0,0l0.5,1
					c-0.2,0.2-0.3,0.3-0.6,0.5c0.5,1.3,0.8,2.6,1.1,3.9c0.2,0.3,0.3,0.6,0.5,1l0,0l-1.1,0.6c-0.2-0.3-0.5-0.5-0.8-0.5l0,0H401l0,0
					v-6.7l0,0h5.3l0,0v1.1l0,0h-0.5l0,0v4.5l0,0h2.2c-0.3-1.3-0.6-2.4-0.8-3.2c-0.3,0.3-0.6,0.5-0.8,0.6l0,0L405.9,849.4z
					 M409.8,852.9v-5.8c-0.5,0.3-0.6,0.5-1,0.8c-0.8-2.4-1.9-3.8-3.2-4.3l0,0v2.9l0,0h-0.8l0,0l-2.2-0.5l0,0v-1.1l0,0l2.1,0.3l0,0
					v-1.8c-0.6-0.2-1.4-0.2-2.6-0.2l0,0v3.2l0,0h-1l0,0v-7.4l0,0h1l0,0v2.9c1.1,0,1.9,0,2.6,0.2l0,0v-3.5l0,0h1l0,0v3.7
					c0.2,0.2,0.5,0.2,0.6,0.3l0,0v-1.1l0,0h1.1c0.5,0,0.6-0.2,0.6-0.6l0,0v-0.5c0-0.7-0.3-0.8-1.3-0.8c0.2-0.5,0.2-0.8,0.3-1.3
					c1.4,0.2,2.1,0.6,2.1,1.8l0,0v1.1c0,1-0.5,1.4-1.3,1.4l0,0h-1.4c1.4,0.8,2.6,2.2,3.4,4.3l0,0v-6.4l0,0h5.5l0,0v1.4l0,0h-0.6l0,0
					v9.6l0,0h0.6l0,0v1.3l0,0H409.8z"/>
				<path id="_x36_3" d="M406.4,823.3v4.8h1.6v-4.8H406.4z M411.1,834.6v-5.1h-1.8v4.7L411.1,834.6z M400.2,826.5v-1.6
					c0.5,0.3,1.1,0.6,1.6,0.8l0,0v-5.4l0,0h1.1l0,0v4.5c0.5-0.6,1-1.1,1.6-1.4l0,0l0.7,1l0,0V822l0,0h4.8l0,0v1.3l0,0h-0.6l0,0v4.8
					l0,0h1.8l0,0v-7c1,0,1.9,0,2.9,0.2c1.6,0,2.2,0.8,2.2,2.2c0,0.6,0,1.6,0,2.7c-0.5,0-0.8,0.2-1.4,0.2c0.2-1.1,0.2-1.9,0.2-2.6
					c0-0.8-0.3-1.1-1-1.1c-0.6-0.2-1.1-0.2-1.8-0.2l0,0v5.6l0,0h5.5l0,0v1.4l0,0h-5c1.9,1.6,3.5,4,4.5,7.4c-0.3,0.2-0.6,0.5-1.1,0.6
					c-0.8-2.7-2.1-5.1-3.8-6.7l0,0v5.3l0,0h-1.1l0,0l-3-0.8l0,0v-5.8l0,0h-1.6l0,0v6.1l0,0h-1.3l0,0v-3.4c-0.7,0.5-1.1,1-1.8,1.4
					l0,0l-0.5-0.8l0,0v1.3c1,0.8,1.8,1.6,2.6,2.4c-0.3,0.3-0.6,0.6-1,1c-1.3-1.4-2.7-2.6-4.3-3.4l0,0v-1.6c0.5,0.3,1.1,0.6,1.6,1
					l0,0v-5.1l0,0h1.1l0,0v4.2c0.5-0.5,1-1,1.4-1.4l0,0l0.8,1l0,0v-7.9c-0.7,0.5-1.1,1-1.8,1.4l0,0l-0.5-0.8l0,0v1.4
					c0.6,0.5,1.4,1,1.9,1.6c-0.2,0.2-0.5,0.5-0.8,1C403.1,827.9,401.8,827.1,400.2,826.5z"/>
				<path id="_x36_4" d="M406.7,819.2v-7.7h-6.4v-1.8h6.4v-7.7h1.4v7.7h9.3v1.8h-9.3v7.7H406.7z"/>
				<path id="_x36_5" d="M407.1,801.1l-0.8-5.9l0,0h-5.9l0,0v-1.6l0,0h5.8l0,0l-1-9.3l0,0l1.4-0.2l0,0l1.1,9.4l0,0h6.2
					c1,0,1.6-0.6,1.6-1.8l0,0v-3.5c0-1.3-0.5-1.9-1.1-2.1c-0.8-0.2-1.8-0.3-2.9-0.3c0.3-0.5,0.5-1,0.6-1.6c1.3,0.2,2.2,0.3,3,0.6
					c1.1,0.3,1.8,1.3,1.8,2.9l0,0v4.3c0,1.9-1,3.1-2.7,3.1l0,0h-6.4l0,0l0.6,5.9l0,0H407.1z"/>
				<path id="_x36_6" d="M401.3,781.8c1-0.8,2.2-1.9,3.5-3.2l0,0l1.1,1.3c-1.6,1.1-2.7,2.1-3.7,3l0,0L401.3,781.8z M407.9,779.7
					c0.3-0.5,0.6-1,1-1.3c2.6,1.4,5,2.7,6.9,3.7l0,0l-1,1.4C413,782.2,410.6,781,407.9,779.7z M407.7,769.8c-1-0.5-1.9-1-3-1.4l0,0
					v6.9c1.1,0.5,2.2,1.1,3.4,1.8c-0.3,0.3-0.6,0.8-0.8,1.3c-2.2-1.4-4.6-2.4-7.1-3.1l0,0l0.5-1.4c1,0.3,1.8,0.6,2.7,1l0,0v-7.8l0,0
					h1.3c1.3,0.3,2.4,1,3.5,1.4C408,768.8,407.9,769.3,407.7,769.8z M405.5,772c0.5,0,1.1,0.2,1.8,0.2c3.9-0.8,6.9-2.9,8.8-6.2
					c0.5,0.5,1,0.8,1.3,1.1c-2.1,2.9-4.7,4.8-7.5,5.6c3.2,0.8,5.8,2.9,7.9,6.4c-0.3,0.2-0.8,0.5-1.3,1c-1.9-3.7-4.5-5.8-8-6.2
					c-0.8-0.2-1.8-0.3-2.9-0.3l0,0V772z"/>
				<path id="_x36_7" d="M400.5,755.3l0.3,0.3c2.7-1.9,4.6-4.5,5.9-7.9c0.5,0.3,1,0.6,1.4,1c-1.6,3-3.7,5.8-6.2,7.8
					c2.4,1.8,4.5,4.3,6.4,7.8c-0.3,0.3-0.8,0.6-1.3,1c-1.9-3.7-4-6.4-6.6-8.2l0,0V755.3z M415.6,764.6v-7.4h-3.2v5.8h-1.3v-5.8h-2.6
					v5.1h-1.4v-11.5h1.4v5h2.6v-5.6h1.3v5.6h3.2v-7.2h1.3v16H415.6z"/>
				<path id="_x36_8" d="M409.9,737.1l-0.6-1c0.6-0.6,1.3-1.3,1.8-1.8l0,0l0.8,1.1C411.2,736,410.6,736.6,409.9,737.1z M412.4,744.1
					v-4.8h-3.5v4.2h-1.1v-4.2h-2.4v4.5h-1.1v-10.4h1.1v4.6h2.4v-4.3h1.1v4.3h3.5v-5h1.1v11H412.4z M402.4,732.3v12.6h13v-12.6H402.4
					z M401.1,746.4v-15.5h16.4v1.4h-0.8v12.6h1v1.4H401.1z"/>
				<path id="_x36_9" d="M400.5,719.3v-1.4l0,0h13.6c1,0,1.4-0.5,1.4-1.6l0,0v-1c0-1-0.5-1.4-1.3-1.6c-1-0.2-2.1-0.3-3.5-0.3
					c0.2-0.5,0.3-1,0.7-1.6c1.4,0.2,2.6,0.3,3.4,0.5c1.4,0.2,2.1,1.1,2.1,2.7l0,0v1.6c0.2,1.9-0.8,2.9-2.6,2.7l0,0H400.5z
					 M400.7,724.7v-1.4l0,0h5.9c2.9,0,5,0.3,6.2,1c1.4,0.6,3,2.1,4.7,4c-0.5,0.3-0.8,0.6-1.5,1.1c-1.3-1.9-2.7-3-4-3.7
					c-1.1-0.6-2.9-1-5.4-1l0,0H400.7z"/>
				<path id="_x37_0" d="M408,697.2v4.8h1.1v-4.8H408z M409.1,707.9v-4.8H408v4.8H409.1z M411.4,702v-4.8h-1.3v4.8H411.4z
					 M411.4,707.9v-4.8h-1.3v4.8H411.4z M404.5,704.6l0.3,0.6l0,0v-4.5c-0.7-0.5-1.3-1-1.9-1.3l0,0v6.4
					C403.4,705.4,403.9,705,404.5,704.6z M404.8,711v-5c-0.5,0.3-1,0.6-1.5,1l0,0l-0.5-0.8l0,0v4l0,0h-1.1l0,0v-7
					c-0.3,0.2-0.6,0.5-1.1,0.6l0,0l-0.5-1.1c0.5-0.5,1.1-0.8,1.6-1l0,0V695l0,0h1.1l0,0v4l0,0l0.5-1c0.3,0.3,0.8,0.8,1.5,1.3l0,0
					V694l0,0h1l0,0v17l0,0H404.8z M415.9,711.3v-8.2h-1.3v6.7h-1v-6.7h-1.3v4.8h0.5v1.1h-5.8v-13h5.8v1.1h-0.5v4.8h1.3v-6.7h1v6.7
					h1.3v-8h1.1v17.3H415.9z"/>
				<path id="_x37_1" d="M413.2,689.3v-9.6h-1.3v9.6H413.2z M409.6,679.7v9.6h1.1v-9.6H409.6z M406.3,693v-7.8h-1.1v6.6H404v-6.6
					h-1.3v7.5h-1.1v-7.5h-1.4v-1.5h1.4v-7.4h1.1v7.4h1.3v-6.1h1.1v6.1h1.1v-7.7h1.1v17H406.3z M417.5,689.3v1.4l0,0h-9l0,0v-12.5
					l0,0h6.9c1.3,0,1.9,0.6,1.9,2.1c0,1,0,1.8,0,2.7c-0.5,0-1,0.2-1.5,0.3c0.2-1,0.2-1.9,0.2-2.7c0-0.6-0.3-1-0.8-1l0,0h-1l0,0v9.6
					l0,0H417.5z"/>
				<path id="_x37_2" d="M408.3,661.5l1-1.3c4.3,3.4,7.1,8.2,8.3,14.1c-0.5,0.3-1,0.6-1.5,1C415.1,669.2,412.4,664.5,408.3,661.5z
					 M400.3,667.2v-1.4h11.1v1.4H400.3z M403.2,663.9l-1-1.1c2.1-1.9,4-3.5,5.8-5.1l0,0l1.1,1.3C407.1,660.7,405,662.3,403.2,663.9z
					 M402.7,670.9l0.5-1.4c2.9,1.3,5.4,2.7,7.9,4.2c-0.3,0.3-0.5,0.8-0.8,1.3C408,673.5,405.6,672.2,402.7,670.9z"/>
				<path id="_x37_3" d="M411.6,653v-4.8h-3.7v4.8H411.6z M411.6,657.2v-2.9l0,0h-5l0,0v-6.1l0,0h-3.2l0,0v5.1
					c1.5,0.8,2.7,1.6,4,2.6c-0.3,0.3-0.6,0.8-1,1.1c-1.9-1.6-4-2.9-6.4-3.7l0,0l0.5-1.4c0.5,0.2,1.1,0.5,1.6,0.8l0,0v-12.2l0,0h1.3
					l0,0v6.2l0,0h3.2l0,0v-5.9l0,0h1.3l0,0v5.9l0,0h3.7l0,0v-7l0,0h1.3l0,0v7l0,0h4.8l0,0v1.5l0,0h-4.8l0,0v9l0,0H411.6z"/>
				<path id="_x37_4" d="M401.9,639.1l-0.3-1c1.1-0.5,2.2-0.8,3.5-1.3l0,0l0.5,1.1C404.2,638.4,402.9,638.7,401.9,639.1z
					 M405.1,634.9c-1.1-0.5-2.2-1-3.5-1.3l0,0l0.3-1.1c1.3,0.5,2.6,1,3.7,1.4l0,0L405.1,634.9z M413.3,630.4v-6.2H412v6.2H413.3z
					 M409.8,624.2v6.2h1.1v-6.2H409.8z M413.6,639.4c-1.8-1.1-3.7-2.1-5.8-2.9l0,0v2.6l0,0h-1.1l0,0v-2.6l0,0h-6.4l0,0v-1.3l0,0h6.4
					l0,0V633l0,0h1.1l0,0v2.2l0,0h2.1l0,0l-0.5-0.6c1-1,1.8-1.8,2.4-2.4l0,0l1,1c-1,0.8-1.8,1.4-2.6,2.1l0,0h7.4l0,0v1.3l0,0h-7.5
					c1.8,0.6,3.4,1.4,4.8,2.2C414.4,639.1,414,639.2,413.6,639.4z M406.4,632.5V628h-1.3v3.7H404V628h-1.1v4.2h-1.1V628h-1.6v-1.3
					h1.6v-4.6h1.1v4.6h1.1v-4.2h1.1v4.2h1.3v-5h1.1v10.7H406.4z M417.5,630.4v1.3l0,0h-9l0,0v-8.8l0,0h6.9c1.3,0,1.9,0.6,1.9,1.9
					l0,0v2.9c-0.3,0-0.8,0.2-1.3,0.3c0-1.1,0.2-2.1,0.2-2.7c0-0.8-0.3-1.1-1-1.1l0,0h-0.8l0,0v6.2l0,0H417.5z"/>
				<path id="_x37_5" d="M409.1,617.3l-0.8-0.8c0.6-0.8,1.3-1.3,1.8-1.9l0,0l1,1C410.3,616.1,409.6,616.8,409.1,617.3z M400.7,619.3
					l-0.5-1.1c0.8-0.6,1.6-1.1,2.4-1.4l0,0l0.6,1.3C402.3,618.5,401.5,618.9,400.7,619.3z M411.2,613.3v-3.1h-2.9v3.1H411.2z
					 M404.3,605.9v3h2.9v-3H404.3z M404.3,613.3h2.9v-3.1h-2.9V613.3z M411.2,608.9v-3h-2.9v3H411.2z M405,621.1h-1.3l0,0v-5.8l0,0
					h1.3c1.1,0.6,2.1,1.3,3.2,2.1l0,0h9.3l0,0v1.3l0,0h-7.7c0.6,0.6,1.3,1.3,1.9,2.1c-0.3,0.2-1,0.3-1.4,0.5
					c-1.4-1.8-3.2-3.2-5.3-4.3l0,0V621.1z M400.2,610.2v-1.3h3v-4.3h10.1v1.3h-0.8v3h5v1.3h-5v3.1h0.8v1.3h-10.1v-4.3H400.2z"/>
				<path id="_x37_6" d="M408.7,599.5v-5.6c-0.8-0.2-1.8-0.3-2.7-0.3l0,0v2.9c1,0.5,1.8,1.1,2.6,1.8c-0.3,0.3-0.6,0.6-1,1.1
					c-1.4-1.3-3-2.2-5-3l0,0l0.5-1.3c0.6,0.3,1.1,0.5,1.6,0.8l0,0v-8.6l0,0h1.3l0,0v5c1,0,1.9,0.2,2.7,0.3l0,0v-6.1l0,0h1.3l0,0v6.4
					c0.3,0,0.5,0.2,0.6,0.2c1-1.9,2.1-4,3.2-6.1l0,0l1.4,0.8c-1.1,1.8-2.4,3.7-3.5,5.9c1.4,1,2.7,2.7,3.7,5.1
					c-0.5,0.3-0.8,0.6-1.3,1c-1.1-3-2.6-4.8-4.2-5.4l0,0v5.3l0,0H408.7z M401.1,601.9v-15.7h1.3v14.2h13.1V586h1.3v15.9H401.1z"/>
				<path id="_x37_7" d="M401.3,583l-0.8-1c0.8-0.8,1.8-1.4,2.6-2.1l0,0l1,1.1C402.9,581.7,402.1,582.4,401.3,583z M400.8,578.3
					l-0.6-1.1c1-0.8,1.8-1.4,2.9-2.1l0,0l0.6,1.3C402.7,576.9,401.8,577.5,400.8,578.3z M403.2,573.2c-1-0.6-1.8-1.4-2.7-2.1l0,0
					l0.8-1.3c1,0.6,1.9,1.6,2.7,2.4l0,0L403.2,573.2z M404.2,584.4v-16h3.5v1.3h-2.2V583h2.2v1.4H404.2z M411.4,585.1v-8.3l0,0h-1
					l0,0l-1.9-3.4l0,0v8.3l0,0h-1.3l0,0v-10.4l0,0h1.4l0,0l2.2,4l0,0h0.5l0,0v-7.5l0,0h1.3l0,0v7.5l0,0h2.6c1.4,0,2.1,0.8,2.1,2.1
					c0,0.8,0,1.8,0,2.9c-0.3,0-0.8,0-1.5,0.2c0-1,0.2-1.9,0.2-2.7c0-0.6-0.3-1-1-1l0,0h-2.4l0,0v8.3l0,0H411.4z"/>
				<path id="_x37_8" d="M416.2,567.1c-2.2-4.8-5.5-7.4-9.8-7.9l0,0v7.5l0,0h-1.3l0,0v-7.5c-1.6,0-3.2,0-4.8,0l0,0v-1.6
					c1.6,0,3.2,0,4.8,0l0,0V550l0,0h1.3l0,0v7.9c4.7-1,7.9-3.7,9.3-8.3c0.6,0.6,1.1,1.1,1.4,1.4c-1.6,3.8-4.3,6.2-8.2,7.4
					c3.5,1,6.4,3.5,8.5,7.7C417.2,566.3,416.7,566.7,416.2,567.1z"/>
				<path id="_x37_9" d="M406.6,545.3v-9.8h1.3v9.8H406.6z M401.8,540.4c2.9,2.4,5.1,5,6.7,7.8c-0.5,0.3-0.8,0.6-1.3,1
					c-1.8-3.4-4-6.1-6.9-8.2l0,0v-1.8l0,0l0.5,0.3c2.7-2.1,4.6-4.8,5.9-8.2c0.5,0.5,1,0.8,1.6,1.1
					C406.6,535.9,404.5,538.5,401.8,540.4z M412.5,537.7c1.4-1.6,2.9-3,4.2-4.3l0,0l1.1,1.1c-0.5,0.3-1,0.8-1.4,1.3
					c0.2,2.9,0.3,5.9,0.5,9c0.2,0.5,0.2,1,0.5,1.4l0,0l-1.5,0.8c-0.3-0.5-0.5-1-1-1.4c-1-1-2.1-1.9-3.4-2.9l0,0v5.8l0,0h-1.4l0,0
					v-16l0,0h1.4l0,0v8.5c1.4,1.1,2.7,2.2,4,3.5c-0.2-2.7-0.3-5.1-0.5-7.5c-0.5,0.6-1.1,1.1-1.8,1.8l0,0L412.5,537.7z"/>
				<path id="_x38_0" d="M401.3,527.7l4.3,1.4v1.1l-4.3-1V527.7z M401.3,524.7l4.3,1.4v1.1l-4.3-1V524.7z"/>
				<path id="_x38_1" d="M409.6,498.9v5.4c1.5-0.5,2.7-1.3,3.9-2.6C412.4,500.5,411.1,499.5,409.6,498.9z M405.8,497.5v-1.9
					c0.3,0.2,0.8,0.3,1.3,0.3l0,0v1.9c0,1.3-0.6,1.9-1.9,1.9l0,0h-2.9l0,0v4l0,0h0.6c2.2,0,4,0.8,5.1,2.7c-0.3,0.2-0.8,0.5-1.1,0.8
					c-0.8-1.4-2.1-2.2-4-2.2l0,0h-1.8l0,0v-6.6l0,0h3.7C405.5,498.4,405.8,498.1,405.8,497.5z M409.6,513.2c-0.2-1-0.5-1.8-0.6-2.6
					l0,0h-4l0,0v2.2l0,0h-1.1l0,0v-2.2l0,0h-3.5l0,0v-1.4l0,0h3.5l0,0v-2.1l0,0h1.1l0,0v2.1l0,0h3.5c-0.2-0.5-0.5-1.1-0.6-1.8
					c0.3,0,0.8,0,1.4-0.2c0.2,0.6,0.3,1.3,0.5,1.9l0,0h5.6c1.3,0,1.9,0.6,1.9,1.8l0,0v1.8c-0.5,0-1,0-1.5,0.2c0-0.6,0-1.1,0-1.6
					c0-0.5-0.2-0.6-0.8-0.6l0,0h-4.8c0.3,0.8,0.6,1.6,0.8,2.4l0,0L409.6,513.2z M409.6,506.4h-1.3l0,0v-9l0,0h1.3
					c1.8,0.8,3.4,1.9,4.7,3.4c0.8-1.4,1.4-3.2,1.8-5.3c0.5,0.3,1,0.6,1.5,0.8c-0.5,2.2-1.3,4-2.4,5.6c1.1,1.4,1.9,3.4,2.6,5.6
					c-0.5,0.3-1,0.5-1.3,0.8c-0.5-2.1-1.1-4-2.1-5.4c-1.3,1.3-2.9,2.2-4.7,2.7l0,0V506.4z"/>
				<path id="_x38_2" d="M400.3,493.3c1-0.8,1.9-1.6,3-2.4l0,0l0.8,1.3c-1.1,0.8-2.2,1.5-3,2.2l0,0L400.3,493.3z M408.8,488.5V485
					h-1.8v3L408.8,488.5z M404,480.3v3.4h1.9v-3.4H404z M415.9,487.5v-3.7l0,0l-0.2-6.2c0.5,0.2,1,0.3,1.4,0.5l0,0v5.8l0,0v4
					c0,2.1-0.8,3.5-2.1,4.5c0.3,0.3,1,1,2.2,1.9l0,0l-1.5,0.8c-0.6-0.6-1.3-1.4-1.9-2.1l0,0h-6.2l0,0v1.9l0,0h-1.3l0,0v-3.4l0,0h7.7
					C415.2,490.7,415.9,489.3,415.9,487.5z M402.9,489.8v-3.4c-0.6,0.6-1.3,1.3-1.9,1.9l0,0l-0.8-1c0.6-0.6,1.1-1.4,1.8-1.9l0,0l1,1
					l0,0v-3.9l0,0l-0.5,0.6c-0.8-0.6-1.4-1.3-2.2-1.9l0,0l0.8-1.1c0.6,0.6,1.3,1.3,1.9,1.8l0,0v-3l0,0h4.8l0,0v1.4l0,0h-0.6l0,0v3.4
					l0,0h1.8l0,0v-5.4c1.3,0,2.4,0.2,3.2,0.2c1.3,0.2,1.9,0.8,1.9,2.1c0,0.6,0,1.3,0,1.9c-0.5,0-0.8,0.2-1.4,0.3
					c0.2-0.8,0.2-1.4,0.2-2.1c0-0.5-0.3-1-1-1c-0.5,0-1,0-1.8-0.2l0,0v4.2l0,0h5.3l0,0v1.3l0,0h-4.8c1.9,1.3,3.2,3,4.2,5.3
					c-0.2,0.2-0.6,0.5-1,0.8c-1-2.1-2.1-3.7-3.7-5l0,0v3.7l0,0h-1.1l0,0l-2.9-0.8l0,0v-4l0,0H404l0,0v4.8l0,0H402.9z"/>
				<path id="_x38_3" d="M407.9,467.7l-0.8-1c1.6-1.3,2.9-2.4,4-3.2l0,0l1,1.3C410.7,465.7,409.3,466.7,407.9,467.7z M404.5,470.9v4
					h4.2v-4H404.5z M414.4,474.9v-4h-4.5v4H414.4z M406.7,469.3c-1.8-1.1-4-2.1-6.6-2.7l0,0l0.5-1.6c0.8,0.3,1.6,0.6,2.4,1l0,0v-5.6
					c6.1,0.2,9.8,0.2,11.4,0.3c1.9,0,2.7,1,2.7,2.9c0,1.1,0,2.1,0,3.2c-0.6,0.2-1.1,0.2-1.6,0.3l0,0l0,0c0.2-1.3,0.3-2.2,0.3-3.2
					c0-1.1-0.6-1.8-1.8-1.8c-1.8-0.2-5-0.2-9.8-0.3l0,0v4.8c1.1,0.5,2.2,1,3.1,1.4C407.2,468.3,406.9,468.8,406.7,469.3z
					 M403.1,476.3v-1.8c-1-0.5-1.9-0.8-2.9-1.1l0,0l0.5-1.4c0.8,0.3,1.8,0.6,2.4,1.1l0,0v-3.5l0,0h14.1l0,0v1.3l0,0h-1.4l0,0v4l0,0
					h1.6l0,0v1.4l0,0H403.1z"/>
				<path id="_x38_4" d="M409.3,451l0.6-1.3c2.1,1,4,1.9,5.6,2.9c-0.2,0.3-0.3,0.8-0.5,1.3C413.5,452.9,411.6,452,409.3,451z
					 M409.9,445.4l-0.6-1.3c2.2-1.1,4-2.1,5.6-2.7l0,0l0.6,1.4C413.8,443.5,411.9,444.4,409.9,445.4z M401.3,451.8v-9.3h1.3v9.3
					H401.3z M406.4,452.6v-10.9l0,0h1.3l0,0v4.8l0,0h7.4c1.4,0,2.2,0.6,2.2,2.1c0,0.6,0,1.4,0,2.2c-0.5,0.2-1,0.2-1.6,0.3
					c0.2-0.8,0.2-1.6,0.2-2.2s-0.3-1-1.3-1l0,0h-6.9l0,0v4.6l0,0H406.4z M411.2,459c-2.1-1.3-4.2-2.1-6.2-2.6l0,0v2.6l0,0h-1.3l0,0
					v-2.7l0,0h-3.4l0,0V455l0,0h3.4l0,0v-2.4l0,0h1.3l0,0v2.4l0,0h3l0,0l-0.8-0.6c0.6-0.8,1.3-1.4,1.9-2.1l0,0l1,1
					c-0.6,0.5-1.3,1.1-1.9,1.8l0,0h9.3l0,0v1.3l0,0h-9.6c2.1,0.6,3.7,1.3,5,2.2C412.4,458.7,411.7,458.9,411.2,459z"/>
				<path id="_x38_5" d="M402.1,434.8v3.8h1.4v-3.8H402.1z M406.1,438.7v-3.8h-1.4v3.8H406.1z M406.1,429.1v-1.1l0,0h2.2
					c1.1,0,2.1,0,3.1,0.3c1.3-1.8,2.2-3.2,3-4l0,0l1,1c-1,1-1.9,2.1-2.9,3.4c0,0.2,0.2,0.2,0.3,0.3c1.1,0.6,2.1,1.9,2.7,3.5
					c-0.3,0.3-0.8,0.6-1.1,1c-0.5-1.6-1.3-2.7-2.1-3.4c-1-0.6-2.2-1-4-1l0,0H406.1z M404.3,432.1v-2.6c-0.8-0.2-1.4-0.2-2.1-0.3l0,0
					v3.5l0,0h-1.1l0,0v-8.8l0,0h1.1l0,0v4c0.6,0.2,1.4,0.2,2.1,0.3l0,0v-3.4l0,0h7.4l0,0v1.1l0,0h-6.2l0,0v5l0,0h6.2l0,0v1.1l0,0
					H404.3z M401,439.8v-6.2h6.7v1.3h-0.5v3.8h0.5v1.1H401z M416,441.1c-1.1-1-3-1.4-5.4-1.4l0,0v-1.3c0.8,0.2,1.4,0.2,2.1,0.3
					c0.8-0.5,1.4-1.1,1.9-1.8l0,0h-4.8l0,0v4l0,0h-1.1l0,0v-8.2l0,0h1.1l0,0v3l0,0h1.9l0,0v-2.9l0,0h1.1l0,0v2.9l0,0h2.4
					c0.3-0.8,0.5-1.8,0.5-2.7c0.2-2.1,0.2-5.3,0-9.4c0.3,0,0.8,0.2,1.3,0.5c0.2,4.2,0.2,7.2,0,9c-0.2,2.6-1,4.7-2.7,5.8
					c1.3,0.3,2.4,0.8,3.4,1.4C417.2,440.4,416.5,440.8,416,441.1z"/>
				<path id="_x38_6" d="M401.3,421.1l-0.8-1c0.8-1,1.6-1.9,2.6-2.9l0,0l1,1.1C403.1,419.1,402.3,420.1,401.3,421.1z M409.3,413.8
					l-0.8-1c1-1.1,2.1-2.1,3-3l0,0l1,1.1C411.6,411.9,410.4,412.9,409.3,413.8z M404.8,422.2v-6.6c-1.5-0.2-3-0.2-4.7-0.2l0,0v-1.6
					c1.8,0,3.2,0.2,4.7,0.3l0,0v-7.5c3.7,0,6.6,0.2,9,0.3c2.2,0.2,3.4,1.3,3.4,3.5c0,0.8-0.2,1.9-0.2,3.2c-0.5,0-1,0.2-1.6,0.3
					c0.2-1.1,0.2-2.2,0.2-3.4c0-1.3-0.6-2.1-2.1-2.1c-2.2-0.2-4.6-0.3-7.2-0.3l0,0v6.1c5.1,0.8,9,3.2,11.5,7.2
					c-0.5,0.3-1,0.6-1.4,1.1c-2.1-3.7-5.4-5.9-10.1-6.7l0,0v6.2l0,0H404.8z"/>
			</g>
		</g>
		<path id="_x38_7" class="st5" d="M396.2,169.9h24v230.4h-24V169.9z"/>
		<g>
			<defs>
				<polygon id="SVGID_19_" points="5.6,-6.8 5.6,1115.8 5.6,1115.8 799.1,1115.8 799.1,1115.8 799.1,-6.8 				"/>
			</defs>
			<clipPath id="SVGID_20_">
				<use xlink:href="#SVGID_19_"  style="overflow:visible;"/>
			</clipPath>
			<g class="st11">
				<path id="_x38_8" class="st7" d="M419.4,392.5v4.8H397v-4.8h1.6v2.7h19.1v-2.7H419.4z"/>
			</g>
		</g>
		<path id="_x38_9" d="M416.2,170.4h1.1v216.3h-1.1V170.4z"/>
		<g>
			<defs>
				<polygon id="SVGID_21_" points="5.6,-6.8 5.6,1115.8 5.6,1115.8 799.1,1115.8 799.1,1115.8 799.1,-6.8 				"/>
			</defs>
			<clipPath id="SVGID_22_">
				<use xlink:href="#SVGID_21_"  style="overflow:visible;"/>
			</clipPath>
			<g class="st12">
				<path id="_x39_0" d="M409.1,382.3l-0.8-0.8c0.6-0.6,1.3-1.3,1.8-1.8l0,0l1,1C410.3,381.3,409.6,381.8,409.1,382.3z M400.7,384.5
					l-0.5-1.3c0.8-0.5,1.6-1,2.4-1.5l0,0l0.6,1.3C402.3,383.6,401.5,384.1,400.7,384.5z M411.2,378.3v-3h-2.9v3H411.2z M404.3,370.9
					v3h2.9v-3H404.3z M404.3,378.3h2.9v-3h-2.9V378.3z M411.2,374v-3h-2.9v3H411.2z M405,386.1h-1.3l0,0v-5.6l0,0h1.3
					c1.1,0.5,2.1,1.1,3.2,1.9l0,0h9.3l0,0v1.3l0,0h-7.7c0.6,0.6,1.3,1.3,1.9,2.1c-0.3,0.2-1,0.3-1.4,0.5c-1.4-1.8-3.2-3.2-5.3-4.3
					l0,0V386.1z M400.2,375.2V374h3v-4.3h10.1v1.3h-0.8v3h5v1.3h-5v3h0.8v1.3h-10.1v-4.3H400.2z"/>
				<path id="_x39_1" d="M414.8,368.2c-0.5-2.4-1-4.5-1.3-6.2c0.5,0.2,0.8,0.2,1.3,0.2c0.3,1.6,0.8,3.4,1.3,5.6l0,0L414.8,368.2z
					 M410.7,366c-0.2-1.1-0.3-2.4-0.6-3.7c0.5,0,1,0.2,1.3,0.2c0.3,1.4,0.5,3.2,1,5.3l0,0l-1.4,0.3c-0.8-1-2.1-1.9-3.5-2.9
					c0.2,1.1,0.2,2.1,0.2,2.7l0,0l-1.1,0.3c-1.8-1.3-3.8-2.6-6.2-3.5l0,0l0.5-1.5c2.1,1.1,4,2.2,5.6,3.4c0-0.8,0-1.4,0-2.1
					c-0.8-0.5-1.6-1-2.4-1.4l0,0l0.6-1.3C406.9,363.2,409,364.7,410.7,366z M415.4,362.4v-5h-4.3v3.8h-1.1v-9h1.1v3.7h4.3v-4.8h1.3
					v11.2H415.4z M402.3,361.3H401l0,0v-8.5l0,0h1.3c1.1,0.8,2.2,1.8,3.2,2.7c0.8-1.8,1.8-3.4,2.6-4.8l0,0l1.3,1
					c-1.1,1.4-2.1,3-3,4.8c1.1,1.4,2.1,3.2,3,5.4c-0.5,0.2-1,0.5-1.3,0.8c-1.1-3.4-3-6.2-5.8-8.3l0,0V361.3z"/>
				<path id="_x39_2" d="M404.3,349.3l0.2-1.1c1.5,0.2,2.9,0.5,4.5,1c0,0.3-0.2,0.6-0.3,1.1C407.4,349.9,405.9,349.6,404.3,349.3z
					 M400.3,347.7v-1.3l0,0h3.4l0,0l-0.5-0.8c1-0.6,1.9-1.1,2.7-1.6l0,0l0.6,1.1c-0.8,0.5-1.6,0.8-2.2,1.3l0,0h13.3l0,0v1.3l0,0
					H400.3z M415.6,345v-5.8l0,0h-4.6l0,0v4.6l0,0h-1.3l0,0v-4.6l0,0h-4.2l0,0v2.9c1.1,0.5,2.2,1,3.2,1.6c-0.3,0.5-0.6,0.8-0.8,1.1
					c-2.1-1.1-4.2-1.9-6.4-2.4l0,0l0.3-1.4c0.8,0.2,1.6,0.5,2.4,0.6l0,0v-2.4l0,0h-3.8l0,0v-1.3l0,0h3.8l0,0v-4.7l0,0h1.3l0,0v4.7
					l0,0h4.2l0,0v-4.3l0,0h1.3l0,0v4.3l0,0h4.6l0,0v-5.3l0,0h1.3l0,0V345l0,0H415.6z"/>
				<path id="_x39_3" d="M403.2,319c0.8-1,1.4-1.8,2.2-2.6l0,0l1.1,1.1c-1,0.8-1.8,1.4-2.6,2.4l0,0L403.2,319z M407.4,328.8
					c2.7,0,4.6,0.2,6.1,0.5c1.3,0.3,2.7,1,4,1.9c-0.3,0.3-0.8,0.6-1.3,1.1c-1.1-1-2.2-1.4-3.4-1.6c-1.1-0.3-2.7-0.5-5.1-0.5l0,0
					h-6.4l0,0v-15.4l0,0h1.3l0,0v13.9l0,0H407.4z M407.2,328.2v-5.5c-1,0-2.2,0-4,0l0,0v-1.4c1.8,0,3.1,0,4,0l0,0v-6.4l0,0h1.4l0,0
					v6.2c3.2-0.6,5.8-2.9,7.2-6.2c0.5,0.5,1,0.8,1.5,1.3c-1.8,2.9-4,4.8-7.2,5.8c3.2,0.8,5.6,2.7,7.5,6.1c-0.3,0.2-0.8,0.6-1.1,1
					c-2.1-3.7-4.8-5.6-7.9-6.1l0,0v5.3l0,0H407.2z"/>
				<path id="_x39_4" d="M403.5,306.7l-0.6-1.3c0.6-0.3,1.3-0.6,1.9-1.1l0,0l0.6,1.3C404.8,305.9,404.2,306.2,403.5,306.7z
					 M410.9,301.4h-1.6v8.3h1.6V301.4z M406.6,301.4v8.3h1.6v-8.3H406.6z M401.6,305.4c1.3,1.3,2.6,2.9,3.8,5l0,0v-9.9
					C404.3,302.2,403.1,303.8,401.6,305.4z M412.5,307.3c0.3-1.3,0.8-2.6,1.4-3.8c-0.5-1.1-1-2.2-1.4-3.2l0,0v1.1l0,0h-0.3l0,0v8.3
					l0,0h3.7c-0.3-1.3-0.6-2.7-1-4.3c0.3,0,0.8,0,1.4,0c0.2,1.4,0.5,2.9,0.8,4.2c0.2,0.5,0.3,0.8,0.5,1.3l0,0l-1.3,0.6
					c-0.3-0.3-0.6-0.5-1.3-0.5l0,0h-9.3c0.5,0.8,1,1.6,1.3,2.4c-0.3,0.3-0.8,0.5-1.1,0.8c-1.5-3.4-3.4-6.2-5.8-8.3l0,0v-1.6l0,0
					l0.5,0.3c2.2-2.2,4-5,4.8-7.8c0.6,0.3,1,0.6,1.4,0.8c-0.3,1-0.8,1.8-1.3,2.6l0,0h6.7c-0.2-0.3-0.2-0.5-0.3-0.7l0,0l1.1-0.8
					c0.5,1,1,2.1,1.4,3.2c0.5-1.3,1-2.6,1.4-4l0,0l1.3,0.8c-1.5,3.4-2.7,6.4-3.9,9.3l0,0L412.5,307.3z"/>
				<path id="_x39_5" d="M412.7,289.4l-1.1-0.8c0.8-1.1,1.3-2.1,1.8-2.9l0,0l1.1,0.8C414,287.5,413.3,288.4,412.7,289.4z M413,282
					l-0.8-1c1-1,2.1-1.6,3-2.4l0,0l0.8,1.1C414.9,280.6,414,281.2,413,282z M412.4,294.5l0.5-1.4c1.4,0.5,2.9,1.1,4,1.8
					c-0.2,0.3-0.5,0.8-0.6,1.3C415.1,295.3,413.8,294.8,412.4,294.5z M404.3,293.1v-5h-1.4v5H404.3z M402.9,281.9v5h1.4v-5H402.9z
					 M409.6,293.2v-5.1H408v5.1H409.6z M408,281.7v5.1h1.6v-5.1H408z M412.2,292v-1.3l0,0h2.6c0.6,0,1.1-0.5,1.1-1.3l0,0v-3.7
					c0-1-0.5-1.4-1.1-1.4c-0.3-0.2-1-0.3-1.9-0.3c0.2-0.5,0.5-1,0.6-1.4c0.8,0.2,1.4,0.3,1.9,0.5c1.1,0.3,1.6,1.1,1.6,2.4l0,0v4.3
					c0,1.5-0.6,2.2-2.2,2.2l0,0H412.2z M406.9,294.5v-6.4h-1.4v5h0.5v1.3h-4.2v-6.2h-1.4v-1.3h1.4v-6.2h4.2v1.3h-0.5v5h1.4v-6.4h4.5
					v1.3h-0.7v5.1h1.1v1.3h-1.1v5.1h0.7v1.3H406.9z"/>
				<path id="_x39_6" d="M410.3,273.2h1.9l0,0V265l0,0h-2.1l0,0v7.9C410.3,272.9,410.3,273.1,410.3,273.2z M415.2,273.2V265h-1.9
					v8.2H415.2z M405.9,277.9v-6.7l0,0h-2.2l0,0v5l0,0h-1.3l0,0v-5l0,0h-2.2l0,0v-1.3l0,0h2.2l0,0v-4.3l0,0h1.3l0,0v4.3l0,0h2.2l0,0
					v-1.8c-1.5-1.9-2.9-3.5-4.5-4.8l0,0l0.8-1.3c1.3,1.1,2.6,2.4,3.7,3.9l0,0v-5l0,0h1.1l0,0v6.6c0.6,1,1.3,2.1,1.9,3.2l0,0v-7l0,0
					h8.5l0,0v1.4l0,0h-1l0,0v8.2l0,0h1l0,0v1.3l0,0h-6.6c0.5,1,1,1.9,1.3,3c-0.3,0.2-0.8,0.5-1.3,0.8c-1.1-3.2-2.4-6.1-3.8-8.5l0,0
					v8l0,0H405.9z"/>
				<path id="_x39_7" d="M407.9,250.8l-0.8-1.1c1.6-1.3,2.9-2.2,4-3l0,0l1,1.3C410.7,248.7,409.3,249.7,407.9,250.8z M404.5,254v4
					h4.2v-4H404.5z M414.4,258v-4h-4.5v4H414.4z M406.7,252.4c-1.8-1.1-4-2.1-6.6-2.9l0,0l0.5-1.4c0.8,0.3,1.6,0.6,2.4,1l0,0v-5.8
					c6.1,0.2,9.8,0.3,11.4,0.5c1.9,0,2.7,1,2.7,2.9c0,1,0,2.1,0,3.2c-0.6,0.2-1.1,0.2-1.6,0.3l0,0l0,0c0.2-1.3,0.3-2.2,0.3-3.4
					c0-1-0.6-1.6-1.8-1.6c-1.8-0.2-5-0.3-9.8-0.3l0,0v4.7c1.1,0.6,2.2,1.1,3.1,1.6C407.2,251.4,406.9,251.9,406.7,252.4z
					 M403.1,259.4v-1.8c-1-0.5-1.9-0.8-2.9-1.1l0,0l0.5-1.4c0.8,0.3,1.8,0.6,2.4,1l0,0v-3.5l0,0h14.1l0,0v1.4l0,0h-1.4l0,0v4l0,0
					h1.6l0,0v1.4l0,0H403.1z"/>
				<path id="_x39_8" d="M404.3,242l-0.3-1.1c1-0.3,2.2-0.6,3.5-1l0,0l0.5,1.3C406.6,241.3,405.5,241.7,404.3,242z M413,228.5v5.8
					c0.8-0.8,1.3-1.6,1.8-2.7C414.3,230.4,413.8,229.3,413,228.5z M400.8,233.6l-0.6-1.3c0.6-0.5,1.3-0.8,1.8-1.1l0,0v-6.4l0,0h1.1
					l0,0v13.5l0,0h5.3c4.3,0,7.4,0.8,9.3,2.4c-0.3,0.3-0.8,0.6-1.1,1c-1.4-1.1-3.4-1.8-5.8-1.9c0.3,0.5,0.8,1.3,1.3,2.1l0,0
					l-1.4,0.3c-0.5-1.1-1-1.9-1.4-2.6l0,0h-7.2l0,0v-6.7C401.6,233.2,401.1,233.3,400.8,233.6z M413,237h-1.1l0,0v-5l0,0h-1.5l0,0
					v3.7l0,0h0.7l0,0v1.3l0,0h-6.6c0-1.3-0.3-2.4-0.8-3.5l0,0l1.3-0.6c0.2,1,0.3,1.9,0.5,2.9l0,0h1.4l0,0v-2.9l0,0h1l0,0v2.9l0,0
					h1.4l0,0V232l0,0h-5.8l0,0v-1.3l0,0h5.8l0,0v-3.7l0,0h-1.4l0,0v2.9l0,0h-1l0,0v-2.9l0,0h-1.4l0,0v2.9l0,0h-1.1l0,0v-4l0,0h6.7
					l0,0v1.1l0,0h-0.7l0,0v3.7l0,0h1.5l0,0v-4l0,0h1.1c1,1,1.8,2.1,2.4,3.4c0.5-1.6,0.8-3.4,1-5.4c0.5,0.2,0.8,0.5,1.3,0.6
					c-0.3,2.4-0.8,4.5-1.6,6.2c0.8,1.9,1.3,4,1.6,6.4c-0.3,0.2-0.7,0.5-1.1,0.6c-0.3-2.1-0.6-4-1.1-5.6c-0.6,1.1-1.4,2.1-2.4,2.7
					l0,0V237z"/>
				<path id="_x39_9" d="M414.4,212.8l-1-0.8c0.6-1.3,1.4-2.7,2.6-4.6l0,0l1.1,1C416,209.9,415.2,211.5,414.4,212.8z M413.6,219.2
					l1-0.8c1.1,1.8,1.9,3.2,2.6,4.6c-0.3,0.2-0.6,0.3-1.1,0.6C415.6,222.4,414.8,221,413.6,219.2z M409.5,211.2
					c1.3-1.4,2.4-2.6,3.4-3.7c0.3,0.2,0.6,0.5,1.1,1c-0.5,0.3-0.8,0.8-1.1,1.1c0,1.8,0.2,3.4,0.2,4.8l0,0h2.2c1.3,0,2.1,0.6,2.1,2.2
					c0,0.5,0,1.1,0,2.1c-0.5,0-1,0-1.5,0.2c0-1,0.2-1.6,0.2-2.1c0-0.6-0.3-1.1-1-1.1l0,0H413c0.2,1.6,0.2,3.1,0.3,4
					c0,0.8,0,1.6,0.2,2.1l0,0l-1.4,0.8c-0.2-1-0.3-1.8-0.5-2.4c-0.6-1.3-1.1-2.6-1.6-3.8c0,1.4,0.2,2.7,0.3,3.8c0,0.5,0,1,0.2,1.4
					l0,0l-1.3,0.6c-0.2-0.6-0.3-1.3-0.6-1.6c-0.3-0.8-0.8-1.6-1.1-2.2l0,0v5.4l0,0h-1.1l0,0V216l0,0H405l0,0v6.1l0,0h-1.1l0,0V216
					l0,0h-1.1l0,0v7.2l0,0h-1.1l0,0V216l0,0h-1.4l0,0v-1.4l0,0h1.4l0,0v-7.1l0,0h1.1l0,0v7.1l0,0h1.1l0,0v-5.9l0,0h1.1l0,0v5.9l0,0
					h1.3l0,0v-7.9l0,0h1.1l0,0v9.6c0.6,1.1,1.3,2.4,1.8,3.5c0-1.8-0.2-3.7-0.3-5.8c-0.5-1-0.8-1.8-1.3-2.7l0,0l0.8-1
					c1.4,3,2.7,5.9,3.9,9c-0.2-3-0.2-5.9-0.3-8.8c-0.5,0.5-1,1-1.5,1.6l0,0L409.5,211.2z"/>
				<path id="_x31_00" d="M404.5,201.1v-7.5h-1.3v7.5H404.5z M406.7,201.1v-7.5h-1.3v7.5H406.7z M409.1,201.1v-7.5h-1.3v7.5H409.1z
					 M410.7,197.9v-1.3l0,0h1.8l0,0v-4c-0.6,0.8-1.4,1.6-2.2,2.2l0,0v5c0.8,0.6,1.6,1.4,2.2,2.2l0,0v-4.2l0,0H410.7z M413.2,188.5
					c0.5,0.5,1,0.8,1.3,1c-0.5,1.1-1.1,2.1-1.8,3.1l0,0h1l0,0v4.2l0,0h1.8l0,0v-6.9l0,0h1.3l0,0v15.1l0,0h-1.3l0,0v-6.9l0,0h-1.8
					l0,0v4.3l0,0h-1c0.8,1,1.4,1.9,2.1,2.9c-0.3,0.3-0.8,0.6-1.1,1c-1-1.8-2.1-3.4-3.4-4.6l0,0v4.5l0,0h-1.1l0,0v-3.5l0,0h-5.9l0,0
					v2.9l0,0h-1.1l0,0v-2.9l0,0h-1.9l0,0v-1.3l0,0h1.9l0,0v-7.5l0,0h-1.9l0,0v-1.4l0,0h1.9l0,0v-2.9l0,0h1.1l0,0v2.9l0,0h5.9l0,0
					v-3.4l0,0h1.1l0,0v4.6C411.6,192,412.5,190.4,413.2,188.5z"/>
				<path id="_x31_01" d="M406.1,184.3V180l0,0h-2.9l0,0v-1.3l0,0h2.9l0,0v-4.5l0,0h1.3l0,0v4.5c0.5,0,1,0.2,1.3,0.2
					c1.4-1.6,2.9-3.2,4.3-5l0,0l1.1,1.1c-1.4,1.3-2.7,2.7-4.2,4.3c1.9,0.8,3.4,2.2,4.5,4.6c-0.5,0.3-0.8,0.6-1.1,1
					c-1.4-3-3.4-4.6-5.9-4.8l0,0v4.2l0,0H406.1z M402.6,173.3v12.2h12.5v-12.2H402.6z M401.3,186.9v-15h16.2v1.4h-1.1v12.2h1.1v1.4
					H401.3z"/>
			</g>
		</g>
		<path id="_x31_02" class="st5" d="M432.2,728.6h24.2v217.3h-24.2V728.6z"/>
		<path id="_x31_03" d="M452.2,747.5h1.1v198.2h-1.1V747.5z"/>
		<g>
			<defs>
				<polygon id="SVGID_23_" points="5.6,-6.8 5.6,1115.8 5.6,1115.8 799.1,1115.8 799.1,1115.8 799.1,-6.8 				"/>
			</defs>
			<clipPath id="SVGID_24_">
				<use xlink:href="#SVGID_23_"  style="overflow:visible;"/>
			</clipPath>
			<g class="st13">
				<path id="_x31_04" d="M450,934.1h-1.4v5.3h1.4V934.1z M441.4,932.3v8.8h1.4v-8.8H441.4z M437.8,945.5v-8c-0.5,0.2-1,0.5-1.3,0.6
					l0,0l-0.5-1.3c0.5-0.3,1.1-0.6,1.8-1l0,0v-7.7l0,0h1.3l0,0v17.3l0,0H437.8z M447.4,940.7v-7.8h3.7v6.6h0.8v1.3H447.4z
					 M453.4,943.1v1.4l0,0h-8.2l0,0v-15.4l0,0h5.9c1.4,0,2.2,0.6,2.2,1.9c0,0.8,0,1.6,0,2.6c-0.5,0.2-1,0.2-1.4,0.3
					c0-1.1,0.2-1.9,0.2-2.4c0-0.8-0.5-1.1-1.1-1.1l0,0h-4.6l0,0v12.7l0,0H453.4z M440.2,942.4V931h4.3v1.3h-0.6v8.8h0.5v1.3H440.2z"
					/>
				<path id="_x31_05" d="M441.7,924.5v-5h-3v5H441.7z M438.6,913.1v5h3v-5H438.6z M446.3,918.1v-5H443v5H446.3z M446.3,924.5v-5
					H443v5H446.3z M437.4,925.8v-13.9h11.4v1.3h-1.1v5h5.9v1.4h-5.9v5h1.1v1.3H437.4z"/>
				<path id="_x31_06" d="M440.6,904.5v-7.5h-1.3v7.5H440.6z M442.8,904.5v-7.5h-1.3v7.5H442.8z M445.2,904.5v-7.5h-1.3v7.5H445.2z
					 M446.8,901.4v-1.3l0,0h1.8l0,0v-4c-0.6,0.8-1.4,1.6-2.2,2.2l0,0v4.8c0.8,0.8,1.6,1.6,2.2,2.4l0,0v-4.2l0,0H446.8z M449.2,892
					c0.5,0.5,1,0.8,1.3,1c-0.5,1.1-1.1,2.1-1.8,3l0,0h1l0,0v4.2l0,0h1.8l0,0v-6.9l0,0h1.3l0,0v15.1l0,0h-1.3l0,0v-6.9l0,0h-1.8l0,0
					v4.3l0,0h-1c0.8,1,1.4,1.9,2.1,2.9c-0.3,0.2-0.8,0.5-1.1,1c-1-1.9-2.1-3.4-3.4-4.8l0,0v4.6l0,0h-1.1l0,0v-3.5l0,0h-5.9l0,0v2.9
					l0,0h-1.1l0,0v-2.9l0,0h-1.9l0,0v-1.4l0,0h1.9l0,0v-7.5l0,0h-1.9l0,0v-1.3l0,0h1.9l0,0v-2.9l0,0h1.1l0,0v2.9l0,0h5.9l0,0v-3.5
					l0,0h1.1l0,0v4.6C447.6,895.5,448.6,893.9,449.2,892z"/>
				<path id="_x31_07" d="M445,891.5c-2.7-2.1-5.6-3.5-8.6-4.5l0,0l0.3-1.5c1.6,0.5,2.9,1.1,4.2,1.8l0,0h12.7l0,0v1.4l0,0h-9.9
					c1,0.6,1.9,1.3,2.9,2.1C446,891,445.5,891.3,445,891.5z M447.1,886.5c-0.6-1.4-1.4-2.9-2.4-4.3l0,0h-8.2l0,0v-1.4l0,0h7.1
					c-1.5-1.8-3.2-3.4-5.1-4.8l0,0l1-1.3c2.2,1.8,4.3,3.7,5.9,6.1l0,0h5c0.8,0,1.3-0.5,1.3-1.3l0,0v-2.2c0-0.8-0.5-1.3-1.1-1.5
					c-0.8-0.2-1.8-0.2-2.9-0.3c0.3-0.5,0.5-1,0.6-1.4c1,0,1.8,0.2,2.7,0.3c1.3,0.2,1.9,1.1,1.9,2.6l0,0v2.9c0,1.6-0.8,2.4-2.4,2.4
					l0,0h-4c0.6,1.1,1.3,2.2,1.9,3.5C447.9,886,447.6,886.2,447.1,886.5z"/>
				<path id="_x31_08" d="M442.5,863.1l-3.7-1.8l0,0v6.2c0.6,0,1.3,0,1.9,0c3.4-1.1,5.9-2.7,7.7-4.6c-1.3-1.4-3-2.6-4.8-3.2l0,0v3.4
					l0,0H442.5z M447.3,868.6c2.1,0.6,4.2,1.9,6.2,3.8c-0.5,0.3-0.8,0.6-1.3,1c-1.9-1.6-3.7-2.9-5.6-3.4c-1.6-0.5-4.2-0.8-7.9-1l0,0
					v3.5l0,0h-1.3l0,0v-12.8l0,0h1.3l0,0l3.5,1.6l0,0v-3.2l0,0h1.1c2.4,1,4.3,2.2,5.9,3.7c1.3-1.8,2.1-3.7,2.6-5.9
					c0.5,0.5,1.1,0.8,1.4,1c-0.8,2.6-1.8,4.6-2.9,6.1c1.3,1.6,2.2,3.5,3.2,5.9c-0.3,0.2-0.8,0.5-1.3,1c-0.8-2.4-1.8-4.3-3-5.8
					c-1.6,1.6-3.5,2.9-5.9,3.9C444.9,868.1,446.3,868.3,447.3,868.6z"/>
				<path id="_x31_09" d="M443.1,842c2.4-1.8,4.3-3,5.8-4l0,0l1,1.1c-2.1,1.3-4.2,2.6-6.1,4l0,0L443.1,842z M448.6,855.4
					c-0.2-0.8-0.3-1.8-0.6-2.7l0,0h-4.2l0,0v2.4l0,0h-1.3l0,0v-2.4l0,0h-3.2l0,0v2.6l0,0H438l0,0V849l0,0h1.3l0,0v2.4l0,0h3.2l0,0
					V849l0,0h1.3l0,0v2.4l0,0h3.8c-0.2-0.8-0.5-1.4-0.6-2.2c0.5,0,0.8,0,1.3,0c0.7,2.2,1.3,4.3,1.9,6.1l0,0L448.6,855.4z
					 M438.8,848.4h-1.4l0,0v-9.8l0,0h1.4l0,0v4.6c1.3,0.3,2.6,0.8,3.9,1.3l0,0v-1.1l0,0h10.9l0,0v1.4l0,0h-10.2
					c2.7,1.1,5.1,2.6,7.2,4.3c-0.3,0.3-0.6,0.6-0.8,1.1c-3.1-2.6-6.7-4.5-10.9-5.6l0,0V848.4z"/>
				<path id="_x31_10" d="M444.6,822.8v7.2h1.3v-7.2H444.6z M448.1,830v-7.2h-1.3v7.2H448.1z M438,831.3v-4.7
					c-0.5,0.3-0.8,0.5-1.3,0.8l0,0l-0.5-1.3c0.6-0.3,1.1-0.6,1.8-1l0,0v-4.3l0,0h1.1l0,0v10.4l0,0H438z M441.4,831.7v-3.2
					c-0.5,0.3-1.1,0.8-1.6,1.1l0,0l-0.6-1c0.6-0.5,1.1-1,1.8-1.4l0,0l0.5,0.6l0,0v-2.6c-0.8-0.5-1.4-1-2.2-1.4l0,0l0.6-1.1
					c0.6,0.3,1.1,0.6,1.6,1.1l0,0v-3.7l0,0h1l0,0v11.5l0,0H441.4z M449.4,837.3c-0.2-0.6-0.3-1.3-0.6-2.1l0,0H442l0,0v1.9l0,0h-1.1
					l0,0v-1.9l0,0h-4.5l0,0V834l0,0h4.5l0,0v-1.9l0,0h1.1l0,0v1.9l0,0h6.4c-0.2-0.6-0.3-1.4-0.5-2.2c0.5,0,1,0,1.3,0
					c0.5,1.8,1,3.7,1.6,5.4l0,0L449.4,837.3z M443.6,831.1v-9.6l0,0h5.9l0,0v1.3l0,0h-0.3l0,0v1.6l0,0h1.9c0.6,0,1-0.3,1-1l0,0v-1.1
					c0-0.5-0.3-0.8-1-1c-0.5,0-1-0.2-1.6-0.2c0.2-0.3,0.3-0.8,0.5-1.3c0.8,0.2,1.3,0.2,1.8,0.3c1,0.2,1.4,0.8,1.4,1.9l0,0v1.6
					c0,1.3-0.6,1.9-1.8,1.9l0,0h-2.2l0,0v1.6c1.3,0.2,2.2,0.6,2.9,1.4c0.5,0.8,1.1,2.1,1.6,3.8c-0.5,0.2-0.8,0.5-1.3,0.8
					c-0.3-1.8-0.8-3-1.3-3.8c-0.5-0.5-1.1-0.8-1.9-1l0,0v1.4l0,0h0.3l0,0v1.1l0,0H443.6z"/>
				<path id="_x31_11" d="M442.2,815.7v-4.3l0,0h-2.9l0,0v-1.3l0,0h2.9l0,0v-4.5l0,0h1.3l0,0v4.5c0.5,0,1,0.2,1.3,0.2
					c1.4-1.6,2.7-3.4,4.3-5l0,0l1.1,1c-1.4,1.4-2.7,2.9-4.2,4.5c1.9,0.6,3.4,2.2,4.5,4.7c-0.5,0.2-0.8,0.5-1.1,0.8
					c-1.4-3-3.4-4.7-5.9-4.8l0,0v4.3l0,0H442.2z M438.6,804.5v12.3h12.5v-12.3H438.6z M437.4,818.3v-15.1h16.2v1.3h-1.1v12.3h1.1
					v1.4H437.4z"/>
				<path id="_x31_12" d="M450.5,790.1l-1-0.8c0.6-1.3,1.4-2.7,2.6-4.6l0,0l1.1,1C452.1,787.2,451.3,788.8,450.5,790.1z
					 M449.7,796.5l1-0.8c1.1,1.8,1.9,3.4,2.6,4.6c-0.3,0.2-0.6,0.3-1.1,0.6C451.6,799.7,450.8,798.3,449.7,796.5z M445.5,788.5
					c1.3-1.4,2.4-2.6,3.4-3.7c0.3,0.2,0.6,0.7,1.1,1c-0.5,0.5-0.8,0.8-1.1,1.1c0,1.8,0.2,3.4,0.2,4.8l0,0h2.2c1.3,0,2.1,0.8,2.1,2.2
					c0,0.5,0,1.3,0,2.1c-0.5,0-1,0.2-1.4,0.2c0-0.8,0.2-1.6,0.2-1.9c0-0.8-0.3-1.1-1-1.1l0,0h-2.1c0.2,1.5,0.2,2.9,0.3,4
					c0,0.8,0,1.4,0.2,1.9l0,0l-1.4,0.8c-0.2-1-0.3-1.8-0.6-2.4c-0.5-1.3-1-2.6-1.4-3.8c0,1.5,0.2,2.7,0.3,4c0,0.3,0,0.8,0.2,1.3l0,0
					l-1.3,0.6c-0.2-0.6-0.3-1.1-0.6-1.6c-0.3-0.8-0.8-1.4-1.1-2.2l0,0v5.4l0,0h-1.1l0,0v-7.9l0,0H441l0,0v6.2l0,0h-1.1l0,0v-6.2l0,0
					h-1.1l0,0v7.2l0,0h-1.1l0,0v-7.2l0,0h-1.4l0,0V792l0,0h1.4l0,0v-7.2l0,0h1.1l0,0v7.2l0,0h1.1l0,0v-6.1l0,0h1.1l0,0v6.1l0,0h1.3
					l0,0v-7.8l0,0h1.1l0,0v9.4c0.6,1.1,1.3,2.4,1.8,3.7c0-1.8-0.2-3.8-0.3-5.9c-0.5-0.8-0.8-1.8-1.3-2.7l0,0l0.8-1
					c1.4,3,2.7,6.1,3.8,9c-0.2-2.9-0.2-5.9-0.5-8.8c-0.5,0.5-0.8,1.1-1.3,1.6l0,0L445.5,788.5z"/>
				<path id="_x31_13" d="M449.7,778.6h-5.8v2.1h5.8V778.6z M443.9,773.1v-3.4l0,0h-5.3l0,0v3.4
					C441.7,773.1,443.4,773.1,443.9,773.1z M437.4,783v-6.6l0,0h1.3l0,0v2.6c1.4,0.3,2.7,0.8,4,1.1l0,0v-2.9l0,0h8.2l0,0v3.4l0,0
					h1.6l0,0v1.1l0,0H446c0.3,0.3,0.8,0.5,1.1,0.8c-0.3,0.3-0.8,0.5-1.1,0.8c-2.1-1.4-4.6-2.4-7.4-2.9l0,0v2.6l0,0H437.4z
					 M443.9,776.6v-2.2c-0.3,0-2.1,0-5.3,0l0,0v1.4l0,0h-1.3l0,0v-9.3l0,0h1.3l0,0v1.8l0,0h5.3l0,0v-2.4l0,0h1.3l0,0v2.4l0,0h8.3
					l0,0v1.4l0,0h-8.3l0,0v3.4c3.5,0,6.2,1.1,8.5,3.4c-0.5,0.5-0.8,0.8-1.1,1.3c-1.9-2.1-4.3-3.2-7.4-3.2l0,0v2.1l0,0H443.9z"/>
				<path id="_x31_14" d="M440.4,759.3l1-1c1.4,1.8,2.7,3.7,3.8,5.6c-0.5,0.3-1,0.6-1.3,0.8C443,762.7,441.8,760.9,440.4,759.3z
					 M440.4,754.5c1.1-1.9,2.4-3.8,3.7-5.8l0,0l1.1,1c-1.3,1.8-2.6,3.7-3.8,5.6l0,0L440.4,754.5z M438.5,764.5v-7.4
					c-0.6,0.3-1.3,0.6-1.6,1l0,0l-0.6-1.3c0.5-0.3,1.1-0.8,1.9-1.1l0,0l0.3,0.6l0,0v-7.7l0,0h3.5l0,0v1.4l0,0h-2.2l0,0v13.1l0,0h2.2
					l0,0v1.3l0,0H438.5z M445.5,752.6h5c0.8,0,1.1-0.3,1.1-1l0,0v-1.3c0-0.5-0.3-0.8-0.8-0.8c-0.6-0.2-1.4-0.2-2.4-0.3
					c0.2-0.3,0.3-0.8,0.5-1.3c0.6,0,1.4,0,2.4,0.2c1.1,0.2,1.8,0.8,1.8,1.9l0,0v2.1c0,1.3-0.8,1.9-2.4,1.9l0,0h-3.9l0,0v4
					c3.4,0.5,5.6,2.6,6.7,6.2c-0.5,0.3-1,0.6-1.1,1c-1.1-3.5-3-5.4-5.6-5.8l0,0v4.5l0,0h-1.3l0,0v-4.6c-0.8-0.2-1.6-0.2-2.6-0.2l0,0
					v-1.4c1,0,1.8,0.2,2.6,0.2l0,0V752.6z"/>
				<path id="_x31_15" class="st7" d="M455.3,736.8v4.8h-1.6v-2.7h-19.1v2.7H433v-4.8H455.3z"/>
				<path id="_x31_16" d="M436.6,726.5c1.4-1.3,2.4-2.2,3-2.7l0,0l1,1.1c-1,0.8-1.9,1.6-3,2.7l0,0L436.6,726.5z M449.4,722.7
					c0.5,0,1,0,1.4-0.2c0.8,1.4,1.8,2.6,2.6,3.7l0,0l-1.3,0.8c-0.3-0.5-0.8-0.6-1.4-0.6l0,0h-6.9l0,0v2.2l0,0h-1.4l0,0v-3.7l0,0h8.7
					C450.5,724.3,449.9,723.5,449.4,722.7z M436.4,716.4l0.5,0.3c2.4-1.4,4.3-3.4,5.4-5.6c0.5,0.3,0.8,0.6,1.3,1
					c-1.5,2.2-3.4,4.2-5.5,5.4c2.1,1.3,3.8,3,5.6,5.4c-0.5,0.3-1,0.6-1.3,1c-1.6-2.7-3.5-4.6-6.1-5.8l0,0V716.4z M443.1,721.2v-1.5
					l0,0h3.7c-1-2.2-2.1-4-3.4-5.4l0,0l1.3-1c1.3,1.8,2.6,4,3.7,6.4l0,0h2.2c0.8,0,1.1-0.3,1.1-1l0,0v-3.5c0-0.8-0.3-1.3-1.1-1.4
					c-0.8-0.2-1.8-0.3-2.7-0.3c0.2-0.5,0.3-0.8,0.5-1.4c1,0.2,1.9,0.2,2.7,0.3c1.3,0.3,1.9,1.1,1.9,2.7l0,0v4c0,1.4-0.6,2.1-2.1,2.1
					l0,0H443.1z"/>
				<path id="_x31_17" d="M440.6,698.2v7.5c2.9-0.6,5.3-1.9,7.2-3.9C446,699.9,443.6,698.8,440.6,698.2z M439.3,710.3v-8.5
					c-1.1,0.6-1.9,1.1-2.4,1.5l0,0l-0.6-1.3c0.5-0.3,1.3-0.8,2.4-1.6l0,0l0.6,1.3l0,0v-8.2l0,0h1.3l0,0v3.2c3.4,0.6,6.1,1.9,8.2,4
					c1.1-1.6,2.1-4,3-7.4c0.6,0.5,1.1,1,1.4,1.1c-1.1,3.4-2.2,5.8-3.5,7.4c1.3,1.6,2.4,4.2,3.7,7.7c-0.3,0.3-0.8,0.6-1.3,1
					c-1.1-3.4-2.2-5.8-3.4-7.5c-2.4,2.1-5,3.5-8.2,4l0,0v3.4l0,0H439.3z"/>
				<path id="_x31_18" d="M449.1,687.4l4.6,1.4v1.3l-4.6-1.1V687.4z"/>
				<path id="_x31_19" d="M450.8,674.4c-0.5-2.4-1-4.5-1.3-6.1c0.5,0,0.8,0,1.3,0c0.3,1.6,0.8,3.5,1.3,5.8l0,0L450.8,674.4z
					 M446.8,672.4c-0.2-1.1-0.3-2.4-0.6-3.8c0.5,0.2,1,0.2,1.3,0.2c0.3,1.4,0.5,3.2,1,5.3l0,0l-1.4,0.3c-0.8-1-2.1-1.8-3.5-2.7
					c0.2,1.1,0.2,1.9,0.2,2.6l0,0l-1.1,0.3c-1.8-1.3-3.9-2.4-6.2-3.5l0,0l0.5-1.3c2.1,1.1,4,2.1,5.6,3.2c0-0.6,0-1.4,0-2.1
					c-0.8-0.5-1.6-1-2.4-1.4l0,0l0.6-1.3C443,669.6,445,671.1,446.8,672.4z M451.5,668.8v-5.1h-4.3v3.8h-1.3v-9h1.3v3.8h4.3v-5h1.3
					v11.4H451.5z M438.3,667.7H437l0,0v-8.5l0,0h1.3c1.1,0.8,2.2,1.6,3.2,2.7c0.8-1.8,1.8-3.4,2.6-5l0,0l1.3,1
					c-1.1,1.4-2.1,3.2-3.1,5c1.1,1.3,2.1,3.2,3.1,5.3c-0.5,0.3-1,0.5-1.3,0.8c-1.1-3.4-3.1-6.1-5.8-8.2l0,0V667.7z"/>
				<path id="_x31_20" d="M448.2,652.2c0.8-1.6,1.6-3.2,2.4-5l0,0l-3.5-4l0,0v9.8l0,0h-1.3l0,0l-2.1-0.8l0,0v4.2l0,0h-1.4l0,0v-4.6
					l0,0l-2.4-1l0,0v4.6l0,0h-1.3l0,0v-5.1l0,0l-2.4-1l0,0v-1.6l0,0l2.4,1l0,0v-8.3l0,0h1.3l0,0v8.8l0,0l2.4,1l0,0v-10.9l0,0h1.4
					l0,0v11.4l0,0l2.1,0.8l0,0v-10.2l0,0h1.4l0,0l4,4.8c0.3-0.8,0.6-1.6,1.1-2.6l0,0l1.3,1c-1.4,2.9-2.9,5.8-4.2,8.7l0,0
					L448.2,652.2z"/>
				<path id="_x31_21" d="M438.5,637.9v-8c-0.5,0.3-1.1,0.8-1.6,1.3l0,0l-0.8-1.3c0.6-0.5,1.3-1,1.9-1.5l0,0l0.5,1l0,0v-7.7l0,0h3
					l0,0v1.4l0,0h-1.8l0,0v13.3l0,0h1.8l0,0v1.4l0,0H438.5z M451.8,638.2c-1-3.5-2.6-6.4-5-8.5c-0.3,0.2-0.6,0.3-1,0.6
					c1.9,1.8,3.2,4.2,4.2,7.2c-0.3,0.2-0.8,0.3-1.1,0.6c-0.8-3-2.2-5.3-4-7c-0.2,0.2-0.3,0.5-0.6,0.6c1.1,1.6,2.1,3.5,2.7,5.8
					c-0.3,0.2-0.8,0.5-1.1,0.8c-0.6-2.9-1.8-5.1-3.2-6.7l0,0v4.3l0,0h-1.3l0,0v-12.5l0,0h1.3l0,0v6.4c0.3,0.3,0.6,0.6,1,1
					c0.6-1,1.6-1.6,2.4-2.2c-0.8-1.8-1.8-3.4-2.7-4.8l0,0l1.1-0.8c0.6,1,1.1,1.9,1.8,3c2.2-1.1,3.9-2.7,4.7-5.1
					c0.5,0.5,1,0.8,1.4,1.1c-1.3,2.2-3,4-5.6,5.1c0.2,0.3,0.3,0.6,0.6,1c2.4-0.6,4.2-0.5,5.5,0.3c0.5,0.5,0.6,1.3,0.6,2.4
					c0,0.5,0,1.3,0,2.2c-0.5,0.2-1,0.2-1.4,0.3c0-1,0.2-1.8,0.2-2.4c0-1.3-0.8-1.9-2.2-1.9c-0.6,0-1.1,0.2-1.6,0.2
					c2.1,2.1,3.7,5,4.8,8.3C452.7,637.8,452.2,638.1,451.8,638.2z"/>
				<path id="_x31_22" d="M436.6,618.7c1.3-1.3,2.2-2.2,2.9-2.7l0,0l1.1,1.1c-1,0.8-2.1,1.6-3,2.7l0,0L436.6,618.7z M440.6,615
					l-0.6-1.1c1.3-1,2.4-1.6,3.7-2.4l0,0l0.8,1.3C443,613.6,441.7,614.4,440.6,615z M443.6,607.5c-1.1-0.8-2.4-1.6-3.7-2.4l0,0
					l0.8-1.3c1.1,0.8,2.4,1.6,3.7,2.6l0,0L443.6,607.5z M448.7,614.5c0.6,0,1.1,0,1.6-0.2c1,1.6,1.9,2.7,2.7,3.7l0,0l-1.3,0.8
					c-0.3-0.3-0.8-0.5-1.4-0.5l0,0h-6.7l0,0v2.1l0,0h-1.3l0,0v-3.5l0,0h8.2C450,616.1,449.4,615.3,448.7,614.5z M445.5,615.8v-5.6
					h-6.7v4.7h-1.4V604h1.4v4.8h6.7V603h1.3v5.8h6.7v1.4h-6.7v5.6H445.5z"/>
				<path id="_x31_23" d="M445.2,599v-4.5h-2.1v4.5H445.2z M443.1,588.6v4.5h2.1v-4.5H443.1z M448.6,599v-4.5h-2.1v4.5H448.6z
					 M448.6,593.1v-4.5h-2.1v4.5H448.6z M438.3,601.9V594c-0.5,0.3-1,0.6-1.6,1.1l0,0l-0.6-1.3c0.6-0.5,1.1-0.8,1.8-1.3l0,0l0.5,1
					l0,0v-7.8l0,0h3.2l0,0v1.4l0,0h-1.9l0,0v13.3l0,0h1.9l0,0v1.4l0,0H438.3z M442,600.3v-5.8h-1.9v-1.4h1.9v-5.8h8.7v1.3h-1v4.5
					h3.8v1.4h-3.8v4.5h1v1.3H442z"/>
				<path id="_x31_24" d="M449.1,579.3l4.6,1.4v1.3l-4.6-1.1V579.3z"/>
				<path id="_x31_25" d="M436.7,564.7l-0.5-1.3c0.8-0.5,1.6-1,2.4-1.4l0,0l0.6,1.3C438.5,563.6,437.7,564.1,436.7,564.7z
					 M444.7,551.8v4.3c1.6-0.3,3.2-1.1,4.3-2.1C447.9,553,446.5,552.2,444.7,551.8z M443.4,558.2v-3.4h-3.4v3.4H443.4z M441,566.3
					h-1.3l0,0v-5.8l0,0h1.3c1.1,0.6,2.2,1.4,3.2,2.2l0,0h0.5c0.2-0.3,0.3-0.5,0.6-0.6c-0.6-0.6-1.3-1.1-1.6-1.4l0,0l0.6-1
					c0.5,0.5,1.1,1,1.8,1.6c0.5-0.5,1-1,1.3-1.3l0,0l1,1c-0.6,0.5-1.4,1-2.1,1.8l0,0h7.2l0,0v1.1l0,0h-7.8c0.8,0.6,1.4,1.3,2.1,2.1
					c-0.5,0.2-1,0.3-1.6,0.5c-1.6-1.9-3.2-3.4-5.1-4.3l0,0V566.3z M439,559.4v-4.7l0,0h-2.7l0,0v-1.3l0,0h2.7l0,0v-4.2l0,0h1
					c0.8,0.3,1.6,0.6,2.4,1c-0.2,0.3-0.3,0.6-0.5,1.1c-0.5-0.3-1.1-0.5-1.8-0.6l0,0v2.7l0,0h3.4l0,0v-3l0,0h1.1
					c2.2,0.5,4,1.4,5.4,2.6c0.8-1,1.6-2.2,2.2-4c0.3,0.3,0.8,0.6,1.3,1c-0.8,1.6-1.6,3-2.6,4c1,1.3,1.9,2.6,2.6,4.3
					c-0.3,0.2-0.8,0.5-1.1,0.8c-0.6-1.8-1.4-3.2-2.4-4.2c-1.3,1.1-3,1.9-5.3,2.4l0,0v0.8l0,0h0.8c3.5,0,6.1,1,8,2.7
					c-0.3,0.3-0.6,0.6-1,1c-1.9-1.6-4.2-2.4-7.1-2.4l0,0H439z"/>
				<path id="_x31_26" d="M436.6,546.6c1.3-1.3,2.2-2.2,2.9-2.7l0,0l1.1,1.1c-1,0.8-2.1,1.6-3,2.7l0,0L436.6,546.6z M440.6,542.9
					l-0.6-1.1c1.3-1,2.4-1.6,3.7-2.4l0,0l0.8,1.3C443,541.5,441.7,542.3,440.6,542.9z M443.6,535.4c-1.1-0.8-2.4-1.6-3.7-2.4l0,0
					l0.8-1.3c1.1,0.8,2.4,1.6,3.7,2.6l0,0L443.6,535.4z M448.7,542.5c0.6,0,1.1,0,1.6-0.2c1,1.6,1.9,2.7,2.7,3.7l0,0l-1.3,0.8
					c-0.3-0.3-0.8-0.5-1.4-0.5l0,0h-6.7l0,0v2.1l0,0h-1.3l0,0v-3.5l0,0h8.2C450,544.1,449.4,543.3,448.7,542.5z M445.5,543.7v-5.6
					h-6.7v4.6h-1.4v-10.9h1.4v4.8h6.7v-5.8h1.3v5.8h6.7v1.4h-6.7v5.6H445.5z"/>
				<path id="_x31_27" d="M437.4,528.4l-0.8-0.8c0.8-1.1,1.6-1.9,2.6-2.9l0,0l1,1.1C439.1,526.6,438.3,527.6,437.4,528.4z
					 M445.4,521.3l-0.8-1c1-1.1,2.1-2.1,3-3.1l0,0l1,1.1C447.6,519.2,446.5,520.4,445.4,521.3z M440.9,529.7v-6.6
					c-1.4-0.2-3-0.3-4.6-0.3l0,0v-1.4c1.8,0,3.2,0,4.6,0.3l0,0v-7.5c3.7,0,6.6,0.2,9,0.3c2.2,0.2,3.2,1.3,3.2,3.5c0,0.8,0,1.9,0,3.2
					c-0.5,0-1,0.2-1.6,0.3c0.2-1.1,0.2-2.2,0.2-3.4c0-1.4-0.6-2.1-2.1-2.2c-2.2-0.2-4.6-0.2-7.2-0.3l0,0v6.2c5.1,0.8,9,3.2,11.5,7.2
					c-0.5,0.3-1,0.6-1.4,1.1c-2.1-3.7-5.4-5.9-10.1-6.9l0,0v6.4l0,0H440.9z"/>
			</g>
		</g>
		<path id="_x31_28" class="st5" d="M432.2,403.3h24.2v104h-24.2V403.3z"/>
		<g>
			<defs>
				<polygon id="SVGID_25_" points="5.6,-6.8 5.6,1115.8 5.6,1115.8 799.1,1115.8 799.1,1115.8 799.1,-6.8 				"/>
			</defs>
			<clipPath id="SVGID_26_">
				<use xlink:href="#SVGID_25_"  style="overflow:visible;"/>
			</clipPath>
			<g class="st14">
				<path id="_x31_29" class="st7" d="M455.3,500v4.8H433V500h1.6v2.7h19.1V500H455.3z"/>
			</g>
		</g>
		<path id="_x31_30" d="M452.2,421.9h1.1V494h-1.1V421.9z"/>
		<g>
			<defs>
				<polygon id="SVGID_27_" points="5.6,-6.8 5.6,1115.8 5.6,1115.8 799.1,1115.8 799.1,1115.8 799.1,-6.8 				"/>
			</defs>
			<clipPath id="SVGID_28_">
				<use xlink:href="#SVGID_27_"  style="overflow:visible;"/>
			</clipPath>
			<g class="st15">
				<path id="_x31_31" d="M445.7,486.7h-1.8v3h1.8V486.7z M440.2,486.7h-1.8v4.2h1.8V486.7z M438.3,484.8v-3.4
					c-0.5,0.3-1,0.5-1.6,0.8l0,0l-0.5-1.1c0.6-0.3,1.3-0.6,1.8-0.8l0,0l0.3,0.8l0,0V477l0,0h1.1l0,0v7.9l0,0H438.3z M442.8,491v-5.6
					h4.5v1.3H447v3h0.6v1.3H442.8z M444.7,484.6v-3l0,0h-1.6l0,0v3.5l0,0H442l0,0V483c-0.6,0.3-1.1,0.6-1.8,1l0,0l-0.6-1
					c0.6-0.5,1.3-0.8,2.1-1.3l0,0l0.3,0.8l0,0v-2.2c-0.8-0.5-1.6-1-2.2-1.3l0,0l0.5-1.3c0.6,0.5,1.3,0.8,1.8,1.3l0,0v-2.4l0,0h1.1
					l0,0v3.7l0,0h1.6l0,0v-3.2l0,0h1.1l0,0v3.2l0,0h1.9l0,0v1.3l0,0h-1.9l0,0v3l0,0H444.7z M437.4,492v-6.4l0,0h4.5l0,0v1.1l0,0
					h-0.5l0,0v4.2c2.2,0.2,4.2,0.8,5.9,2.2c-0.5,0.2-1,0.3-1.4,0.6c-1.3-1.1-3.2-1.8-5.9-1.8l0,0H437.4z M451.8,493.5v-7.9H450v6.2
					h-1.1v-6.2h-1.4v-1.4h1.4v-6.1h1.1v6.1h1.8v-7.9h1.3v17.1H451.8z"/>
				<path id="_x31_32" d="M444.7,460.6v4.6c1.8-0.3,3.2-1.1,4.3-2.2C447.9,461.9,446.3,461.1,444.7,460.6z M445.7,475.7
					c-0.3-0.8-0.5-1.8-0.8-2.6l0,0H441l0,0v2.4l0,0h-1.1l0,0v-2.4l0,0h-3.5l0,0v-1.3l0,0h3.5l0,0v-2.1l0,0h1.1l0,0v2.1l0,0h3.4
					c-0.2-0.8-0.3-1.4-0.6-2.1c0.6,0,1.1,0,1.4,0c0.2,0.6,0.5,1.3,0.6,2.1l0,0h5.6c1.3,0,1.9,0.5,1.9,1.6c0,0.5,0,1.1,0,1.8
					c-0.5,0.2-1,0.2-1.4,0.3c0-0.8,0-1.3,0-1.6c0-0.5-0.3-0.8-0.8-0.8l0,0h-4.8c0.2,0.8,0.5,1.6,0.8,2.4l0,0L445.7,475.7z
					 M437.2,468.9v-9.6c1.3,0,2.1,0,2.7,0.2c1.4,0,2.2,1,2.2,2.6c0,0.6,0,1.6-0.2,2.9c-0.3,0.2-0.8,0.2-1.3,0.3c0-1.3,0.2-2.2,0.2-3
					c0-1-0.5-1.4-1.1-1.4c-0.3,0-0.8,0-1.3-0.2l0,0v7l0,0h5l0,0v-8.5l0,0h1.3c2.1,0.6,3.8,1.6,5.3,2.9c0.8-1.1,1.6-2.4,2.1-3.8
					c0.5,0.3,1,0.6,1.3,1c-0.6,1.4-1.4,2.7-2.4,3.8c0.8,1.1,1.8,2.4,2.6,3.9c-0.3,0.2-0.8,0.5-1.1,0.8c-0.8-1.4-1.6-2.6-2.4-3.7
					c-1.4,1.3-3.2,2.1-5.3,2.6l0,0v1.1l0,0h9l0,0v1.3l0,0H437.2z"/>
				<path id="_x31_33" d="M440.9,445.9c1.8-2.1,3.2-3.8,4.3-5c0.3,0.3,0.6,0.6,1.1,1c-1.4,1.3-2.9,3-4.5,5l0,0L440.9,445.9z
					 M441,452.1l1-1.1c1.6,1.8,3.2,3.4,4.5,5.1c-0.3,0.3-0.6,0.6-1.1,1.1C444.2,455.3,442.6,453.7,441,452.1z M439,457.4v-8.3
					c-0.6,0.3-1.3,0.8-2.1,1.3l0,0l-0.6-1.3c0.6-0.5,1.4-1,2.1-1.4l0,0l0.6,1.1l0,0v-8.3l0,0h1.3l0,0v17l0,0H439z M443.8,446.2
					l0.6-1.4c1.9,1,3.5,1.9,4.8,3.2c1.3-1.8,2.2-4.3,2.9-7.5c0.5,0.5,1,0.8,1.4,1.1c-0.8,3-1.9,5.6-3.4,7.4c1.3,1.6,2.4,4.2,3.5,7.7
					c-0.5,0.3-1,0.6-1.4,1c-0.8-3.4-1.8-5.8-3-7.5c-1.1,1.1-2.7,2.2-4.6,3l0,0l-0.6-1.3c1.8-0.6,3.2-1.6,4.3-2.9
					C447.3,448,445.7,447,443.8,446.2z"/>
				<path id="_x31_34" d="M437.5,439l-1-0.8c0.6-1,1.4-1.9,2.4-2.9l0,0l1.1,1C439.1,437.2,438.2,438.2,437.5,439z M442.2,439.6
					l-1.1-0.8c0.6-1,1.5-1.9,2.2-3.1c0.6,0.5,1,0.8,1.3,1.1C443.4,438,442.6,439,442.2,439.6z M445.4,430v-1.4h7.8v1.4H445.4z
					 M453.1,439.2c-2.1-0.6-4.5-1.3-6.9-1.8c0.2-0.7,0.3-1.1,0.5-1.5c2.1,0.5,4.3,1.1,6.7,1.6l0,0L453.1,439.2z M445.4,433.4v-1.3
					c2.6,0,4.3,0.2,5.4,0.6c1.1,0.5,2.1,1.6,2.9,3c-0.5,0.2-0.8,0.5-1.1,0.8c-0.8-1.3-1.6-2.1-2.6-2.6
					C449.2,433.7,447.6,433.4,445.4,433.4z M445.4,426.8v-1.4l0,0h5.8c0.6,0,0.8-0.2,0.8-0.6l0,0v-0.5c0-0.5-0.2-0.6-0.8-0.8
					c-0.6,0-1.4-0.2-2.2-0.2c0.2-0.3,0.3-0.8,0.5-1.3c1,0.2,1.8,0.2,2.2,0.3c1.1,0.2,1.6,0.6,1.6,1.6l0,0v1.1c0,1.1-0.6,1.8-2.1,1.8
					l0,0H445.4z M440.7,425.9c1.1-1,2.4-1.9,3.9-3c0.3,0.3,0.5,0.8,0.8,1.3c-0.3,0.2-0.8,0.5-1.3,0.8c0.2,2.9,0.3,5.5,0.5,8
					c0,0.3,0,0.8,0.2,1.3l0,0l-1.3,0.6c-0.2-0.5-0.5-0.8-0.8-1.3c-0.8-0.8-1.8-1.8-2.9-2.7l0,0v4l0,0h-1.3l0,0v-5.6
					c-0.6,0.5-1.3,0.8-1.8,1.3l0,0l-0.8-1.1c0.6-0.5,1.3-1,1.9-1.6l0,0l0.6,1l0,0v-5.9l0,0h1.3l0,0v7.7l0,0l0.5-1.1
					c1.1,1.1,2.2,2.1,3,3c-0.2-1.9-0.2-4.2-0.3-6.7c-0.5,0.5-1,0.8-1.5,1.3l0,0L440.7,425.9z"/>
				<path id="_x31_35" class="st7" d="M455.3,411.1v4.8h-1.6V413h-19.1v2.9H433v-4.8H455.3z"/>
				<path id="_x31_36" d="M449.1,397.8l4.6,1.4v1.3l-4.6-1.1V397.8z"/>
				<path id="_x31_37" d="M448.4,377.5l-0.8-1c1-1,1.8-1.6,2.6-2.2l0,0l1,1.1C450.2,376,449.4,376.7,448.4,377.5z M446,378.4v-7.1
					l0,0h-1.8l0,0V370l0,0h1.8l0,0v-2.6l0,0h1.3l0,0v2.6l0,0h3.9c1.4,0,2.2,0.8,2.2,2.2c0,0.5,0,1.3,0,2.4c-0.5,0.2-1,0.2-1.6,0.3
					c0.2-1,0.2-1.8,0.2-2.4c0-0.8-0.3-1.1-1.1-1.1l0,0h-3.5l0,0v7.1l0,0H446z M442.5,378.8V374h-2.6v4.2h-1.3V374h-2.4v-1.3h2.4
					v-4.3h1.3v4.3h2.6v-5.1h1.3v11.2H442.5z M446.6,385c-0.3-1.1-0.6-2.2-1.1-3.4l0,0h-4l0,0v1.5c1.1,0.3,2.1,0.5,3.1,1
					c-0.3,0.3-0.5,0.6-0.8,1.1c-1.6-0.6-3.5-1.1-5.8-1.3l0,0l0.2-1.3c0.8,0,1.4,0.2,2.1,0.3l0,0v-1.3l0,0h-3.8l0,0v-1.3l0,0h3.8l0,0
					v-2.2l0,0h1.3l0,0v2.2l0,0h3.7c-0.3-0.6-0.5-1.3-0.8-1.9c0.5-0.2,1-0.2,1.4-0.2c0.2,0.6,0.5,1.3,0.6,2.1l0,0h7l0,0v1.3l0,0h-6.4
					c0.3,1,0.6,2.1,1.1,3.1l0,0L446.6,385z"/>
				<path id="_x31_38" d="M437.5,355.9l-1.1-0.8c0.8-1.1,1.6-2.2,2.4-3.2l0,0l1.1,0.8C439,353.8,438.2,354.7,437.5,355.9z
					 M445,353.1v6.4c1.6-0.5,3-1.6,4.2-3.2C447.9,354.9,446.5,353.8,445,353.1z M440.2,364.5v-3.7c-1.3-0.3-2.6-0.5-4-0.8l0,0
					l0.2-1.4c1.3,0.2,2.6,0.5,3.8,0.6l0,0v-9.6l0,0h1.3l0,0v10.1c0.8,0.2,1.6,0.3,2.2,0.6l0,0v-8.8l0,0h1.3c1.9,0.8,3.5,2.1,5,3.7
					c1-1.6,1.6-3.5,2.1-5.8c0.5,0.5,1.1,1,1.4,1.3c-0.6,1.8-1.6,3.7-2.7,5.6c1,1.6,1.9,3.7,2.9,6.6c-0.5,0.3-1,0.6-1.3,1.1
					c-0.8-2.9-1.6-5.1-2.4-6.6c-1.3,1.6-3,2.7-5,3.4c3.2,1.3,5.8,3,7.9,5.3c-0.5,0.2-0.8,0.5-1.1,0.8c-2.4-2.6-5.8-4.5-10.3-5.8l0,0
					v4.8l0,0h-1.3c-1.1-0.5-2.2-0.8-3.4-1.3l0,0l0.3-1.5C438.3,363.7,439.3,364,440.2,364.5z"/>
				<path id="_x31_39" d="M436.2,338.6v-1.4l0,0h6.2c-1-1.4-2.1-2.9-3.4-4.3l0,0l1.1-1.1c1.3,1.6,2.6,3.5,3.8,5.4l0,0h6.2
					c0.8,0,1.1-0.3,1.1-1.1l0,0v-1.6c0-0.6-0.3-1.1-1-1.1c-1-0.2-1.9-0.3-3-0.3c0.2-0.5,0.3-1,0.5-1.4c1.3,0,2.2,0.2,3.1,0.3
					c1.1,0.2,1.8,1,1.8,2.2l0,0v2.4c0,1.3-0.8,2.1-2.2,2.1l0,0H436.2z M451.1,348.8c0-0.5-0.2-1-0.2-1.4l0,0h-11.4l0,0v-1.4l0,0
					h11.1c-0.2-0.8-0.3-1.6-0.5-2.2l0,0h-13.8l0,0v-1.4l0,0h5.3l0,0V339l0,0h1.3l0,0v3.2l0,0h6.9c-0.2-1-0.3-2.1-0.6-2.9
					c0.6-0.2,1.1-0.2,1.4-0.2c0.6,3.2,1.3,6.2,2.1,9.3l0,0L451.1,348.8z"/>
				<path id="_x31_40" d="M436.6,329.1c1.4-1.3,2.4-2.2,3-2.9l0,0l1,1.3c-1,0.8-1.9,1.6-3,2.7l0,0L436.6,329.1z M447,325.4
					c0.3-0.2,0.8-0.2,1.4-0.3c1.5,1.3,2.6,2.4,3.4,3.2l0,0l-1.1,1c-0.5-0.3-1.1-0.5-1.8-0.5l0,0h-5.4l0,0v2.1l0,0h-1.3l0,0v-3.5l0,0
					h6.9C448.4,326.9,447.8,326.2,447,325.4z M451.3,326.4V324h-9.6v-1.4h9.6v-2.7h-12.8v5.6h-1.3v-11.7h1.3v4.6h5.3v-4h1.3v4h6.2
					v-5h1.3v13H451.3z"/>
				<path id="_x31_41" d="M452.1,309.7c0-0.2-0.2-0.5-0.3-0.6c-0.2-0.2-0.3-0.3-0.6-0.3c-0.3,0-0.6,0.2-0.8,0.3
					c-0.2,0.2-0.2,0.5-0.2,0.6c0,0.3,0,0.5,0.2,0.6c0.2,0.2,0.5,0.3,0.8,0.3c0.3,0,0.5-0.2,0.6-0.3
					C451.9,310.2,452.1,309.9,452.1,309.7z M448.9,309.7c0-0.6,0.2-1.1,0.6-1.6c0.3-0.3,1-0.6,1.4-0.6c0.8,0,1.3,0.3,1.8,0.6
					c0.3,0.5,0.6,1,0.6,1.6c0,0.6-0.3,1.1-0.6,1.6c-0.5,0.5-1,0.6-1.6,0.6c-0.8,0-1.3-0.2-1.8-0.6
					C449.1,310.9,448.9,310.2,448.9,309.7z"/>
			</g>
		</g>
		<g>
			<defs>
				<polygon id="SVGID_29_" points="552.2,184.9 707.7,184.9 707.7,184.9 707.7,340.1 707.7,340.1 552.2,340.1 				"/>
			</defs>
			<clipPath id="SVGID_30_">
				<use xlink:href="#SVGID_29_"  style="overflow:visible;"/>
			</clipPath>
			<g class="st16">
				<g transform="matrix(0.1202474 0 0 0.1201238 410.16 142.84)">
					<g transform="matrix(1 0 0 1 0 0)">
						
							<image style="overflow:visible;enable-background:new    ;" width="970" height="969" xlink:href="img_02.png"  transform="matrix(1.3333 0 0 1.3333 1181.0688 350.3852)">
						</image>
					</g>
				</g>
			</g>
		</g>
	</g>
</g>
</svg>
